<svg data-v-423bf9ae="" xmlns="http://www.w3.org/2000/svg" viewBox="0 0 268 90" class="iconLeftSlogan"><!----><!----><!----><g data-v-423bf9ae="" id="c8e8d686-2f03-4886-a2dd-529e20c1954c" fill="#000000" transform="matrix(5.4200544357299805,0,0,5.4200544357299805,102.65374755859375,-14.471546173095703)"><path d="M1.11 13.02L1.11 13.02L1.11 13.02Q0.96 12.73 0.88 12.40L0.88 12.40L0.88 12.40Q0.81 12.07 0.81 11.70L0.81 11.70L0.81 11.70Q0.81 11.33 0.93 10.73L0.93 10.73L0.93 10.73Q1.06 10.13 1.28 9.46L1.28 9.46L1.28 9.46Q1.50 8.80 1.79 8.10L1.79 8.10L1.79 8.10Q2.08 7.40 2.41 6.74L2.41 6.74L2.41 6.74Q3.08 5.36 3.74 4.35L3.74 4.35L3.66 4.35L3.66 4.35Q2.85 4.35 2.15 4.72L2.15 4.72L2.15 4.72Q1.98 4.85 1.83 4.85L1.83 4.85L1.83 4.85Q1.50 4.85 1.19 4.53L1.19 4.53L1.19 4.53Q0.48 3.77 2.04 3.28L2.04 3.28L2.04 3.28Q2.77 3.04 3.22 3.04L3.22 3.04L3.22 3.04Q3.66 3.04 3.94 3.18L3.94 3.18L3.94 3.18Q4.21 3.32 4.40 3.51L4.40 3.51L4.40 3.51Q4.70 3.81 4.83 4.11L4.83 4.11L4.83 4.11Q4.96 4.40 4.96 4.62L4.96 4.62L4.96 4.62Q4.96 4.85 4.82 5.22L4.82 5.22L4.82 5.22Q4.69 5.59 4.48 6.02L4.48 6.02L4.02 6.92L4.02 6.92Q3.77 7.39 3.53 7.91L3.53 7.91L3.53 7.91Q3.28 8.43 3.04 8.95L3.04 8.95L3.04 8.95Q2.79 9.47 2.60 9.96L2.60 9.96L2.60 9.96Q2.18 11.06 2.18 11.83L2.18 11.83L2.18 11.83Q2.18 12.29 2.27 12.59L2.27 12.59L2.27 12.59Q2.57 12.11 3.01 11.59L3.01 11.59L3.96 10.52L3.96 10.52Q5.63 8.73 6.13 8.14L6.13 8.14L6.13 8.14Q7.29 6.77 7.92 5.55L7.92 5.55L7.92 5.55Q8.17 5.07 8.17 4.67L8.17 4.67L8.17 4.67Q8.17 3.94 7.77 3.57L7.77 3.57L7.77 3.57Q7.62 3.42 7.73 3.22L7.73 3.22L7.73 3.22Q7.83 3.01 7.94 2.91L7.94 2.91L7.94 2.91Q8.21 2.67 8.54 2.67L8.54 2.67L8.54 2.67Q8.88 2.67 9.11 2.81L9.11 2.81L9.11 2.81Q9.34 2.95 9.49 3.16L9.49 3.16L9.49 3.16Q9.78 3.58 9.78 4.19L9.78 4.19L9.78 4.19Q9.78 4.81 9.52 5.50L9.52 5.50L9.52 5.50Q9.26 6.19 8.83 6.85L8.83 6.85L8.83 6.85Q8.40 7.51 7.86 8.13L7.86 8.13L7.86 8.13Q7.31 8.75 6.75 9.31L6.75 9.31L4.68 11.26L4.68 11.26Q3.75 12.20 3.43 12.55L3.43 12.55L3.43 12.55Q2.83 13.22 2.66 13.43L2.66 13.43L2.66 13.43Q2.49 13.64 2.35 13.69L2.35 13.69L2.35 13.69Q2.21 13.73 1.98 13.73L1.98 13.73L1.98 13.73Q1.75 13.73 1.51 13.52L1.51 13.52L1.51 13.52Q1.26 13.32 1.11 13.02ZM20.51 12.29L20.51 12.29L20.51 12.29Q20.69 12.29 20.69 12.53L20.69 12.53L20.69 12.53Q20.69 12.78 20.60 12.93L20.60 12.93L20.60 12.93Q20.51 13.09 20.39 13.22L20.39 13.22L20.39 13.22Q20.28 13.35 20.10 13.47L20.10 13.47L20.10 13.47Q19.68 13.74 19.22 13.74L19.22 13.74L19.22 13.74Q18.76 13.74 18.49 13.63L18.49 13.63L18.49 13.63Q18.22 13.51 18.02 13.29L18.02 13.29L18.02 13.29Q17.60 12.82 17.60 11.98L17.60 11.98L17.60 11.98Q17.60 11.09 17.94 9.81L17.94 9.81L17.94 9.81Q18.28 8.53 18.60 7.62L18.60 7.62L18.60 7.62Q18.92 6.71 19.25 5.88L19.25 5.88L19.87 4.31L19.87 4.31Q18.85 5.22 17.30 8.13L17.30 8.13L15.65 11.27L15.65 11.27Q14.32 13.74 13.75 13.74L13.75 13.74L13.75 13.74Q13.20 13.74 13.00 13.26L13.00 13.26L13.00 13.26Q12.81 12.80 12.81 11.71L12.81 11.71L12.81 11.71Q12.81 10.61 12.98 9.60L12.98 9.60L12.98 9.60Q13.16 8.59 13.43 7.63L13.43 7.63L13.43 7.63Q13.89 5.93 14.63 4.25L14.63 4.25L14.63 4.25Q13.91 4.66 13.04 6.05L13.04 6.05L13.04 6.05Q12.37 7.16 12.09 7.68L12.09 7.68L10.33 10.92L10.33 10.92Q9.23 12.93 8.56 13.40L8.56 13.40L8.56 13.40Q8.07 13.74 7.51 13.74L7.51 13.74L7.51 13.74Q7.03 13.74 6.82 13.44L6.82 13.44L6.82 13.44Q6.74 13.32 6.74 13.21L6.74 13.21L6.74 13.21Q6.74 13.11 6.80 13.09L6.80 13.09L6.80 13.09Q7.23 12.97 7.40 12.85L7.40 12.85L7.40 12.85Q7.57 12.72 7.75 12.59L7.75 12.59L7.75 12.59Q7.92 12.46 8.24 12.02L8.24 12.02L8.24 12.02Q8.57 11.59 8.96 10.98L8.96 10.98L8.96 10.98Q9.34 10.36 9.75 9.60L9.75 9.60L10.62 8.00L10.62 8.00Q11.83 5.68 13.14 4.28L13.14 4.28L13.14 4.28Q13.60 3.78 14.05 3.51L14.05 3.51L14.05 3.51Q14.51 3.19 15.10 3.08L15.10 3.08L15.10 3.08Q15.26 3.04 15.40 3.04L15.40 3.04L15.40 3.04Q15.54 3.04 15.72 3.08L15.72 3.08L15.72 3.08Q15.89 3.12 16.02 3.21L16.02 3.21L16.02 3.21Q16.32 3.42 16.20 3.76L16.20 3.76L16.20 3.76Q16.15 3.96 15.99 4.38L15.99 4.38L15.62 5.35L15.62 5.35Q14.33 8.92 14.21 11.85L14.21 11.85L14.21 11.85Q14.57 11.22 14.94 10.49L14.94 10.49L15.71 8.96L16.52 7.41L16.52 7.41Q18.40 3.92 20.02 3.42L20.02 3.42L20.02 3.42Q20.35 3.31 20.58 3.31L20.58 3.31L20.58 3.31Q20.80 3.31 20.93 3.37L20.93 3.37L20.93 3.37Q21.06 3.42 21.16 3.51L21.16 3.51L21.16 3.51Q21.40 3.73 21.33 3.96L21.33 3.96L21.33 3.96Q21.25 4.19 21.13 4.55L21.13 4.55L20.14 7.44L19.78 8.57L19.78 8.57Q19.20 10.54 19.09 11.59L19.09 11.59L19.09 11.59Q19.04 12.04 19.19 12.29L19.19 12.29L19.19 12.29Q19.33 12.54 19.57 12.54L19.57 12.54L19.57 12.54Q19.82 12.54 19.96 12.50L19.96 12.50L19.96 12.50Q20.10 12.46 20.20 12.41L20.20 12.41L20.38 12.33L20.38 12.33Q20.45 12.29 20.51 12.29ZM26.35 12.41L26.35 12.12L26.35 12.12Q26.35 11.20 26.88 9.29L26.88 9.29L26.88 9.29Q25.23 9.33 24.36 9.39L24.36 9.39L24.36 9.39Q24.09 9.87 23.87 10.31L23.87 10.31L23.45 11.15L23.45 11.15Q22.61 12.80 21.94 13.33L21.94 13.33L21.94 13.33Q21.42 13.74 20.85 13.74L20.85 13.74L20.85 13.74Q20.41 13.74 20.19 13.45L20.19 13.45L20.19 13.45Q20.10 13.34 20.09 13.23L20.09 13.23L20.09 13.23Q20.08 13.13 20.14 13.09L20.14 13.09L20.14 13.09Q20.92 12.80 21.42 12.20L21.42 12.20L21.42 12.20Q21.85 11.66 22.28 10.88L22.28 10.88L23.05 9.50L22.62 9.56L22.62 9.56Q22.21 9.63 22.21 9.43L22.21 9.43L22.21 9.43Q22.21 9.22 22.46 9.04L22.46 9.04L22.46 9.04Q22.89 8.72 23.30 8.61L23.30 8.61L23.59 8.54L23.59 8.54Q24.71 6.69 25.30 5.95L25.30 5.95L25.30 5.95Q25.89 5.22 26.38 4.72L26.38 4.72L26.38 4.72Q26.87 4.23 27.41 3.86L27.41 3.86L27.41 3.86Q28.59 3.04 29.74 3.04L29.74 3.04L29.74 3.04Q30.09 3.04 30.21 3.19L30.21 3.19L30.21 3.19Q30.42 3.41 30.34 3.67L30.34 3.67L30.34 3.67Q30.27 3.92 30.10 4.40L30.10 4.40L30.10 4.40Q29.00 7.38 28.77 8.09L28.77 8.09L28.77 8.09Q28.88 8.09 28.96 8.09L28.96 8.09L29.11 8.09L29.11 8.09Q29.88 8.09 29.93 8.24L29.93 8.24L29.93 8.24Q29.95 8.29 29.95 8.41L29.95 8.41L29.95 8.41Q29.95 8.54 29.87 8.70L29.87 8.70L29.87 8.70Q29.79 8.87 29.61 8.98L29.61 8.98L29.61 8.98Q29.25 9.23 28.40 9.27L28.40 9.27L28.40 9.27Q27.93 10.88 27.87 11.49L27.87 11.49L27.87 11.49Q27.80 12.11 27.91 12.32L27.91 12.32L27.91 12.32Q28.01 12.54 28.21 12.54L28.21 12.54L28.21 12.54Q28.40 12.54 28.53 12.50L28.53 12.50L28.53 12.50Q28.65 12.46 28.75 12.41L28.75 12.41L28.92 12.33L28.92 12.33Q28.99 12.29 29.06 12.29L29.06 12.29L29.06 12.29Q29.13 12.29 29.18 12.38L29.18 12.38L29.18 12.38Q29.23 12.48 29.23 12.63L29.23 12.63L29.23 12.63Q29.23 12.78 29.10 12.98L29.10 12.98L29.10 12.98Q28.98 13.19 28.77 13.36L28.77 13.36L28.77 13.36Q28.29 13.74 27.69 13.74L27.69 13.74L27.69 13.74Q26.77 13.74 26.46 12.92L26.46 12.92L26.46 12.92Q26.35 12.63 26.35 12.41L26.35 12.41ZM25.52 7.40L24.99 8.31L24.99 8.31Q26.20 8.15 27.24 8.12L27.24 8.12L27.24 8.12Q27.43 7.53 27.65 6.96L27.65 6.96L28.08 5.87L28.08 5.87Q28.29 5.35 28.51 4.88L28.51 4.88L28.90 4.04L28.90 4.04Q27.48 4.41 26.09 6.49L26.09 6.49L26.09 6.49Q25.80 6.93 25.52 7.40L25.52 7.40Z"></path></g><defs data-v-423bf9ae=""><linearGradient data-v-423bf9ae="" gradientTransform="rotate(25)" id="cce01203-eb21-4aab-aae8-ab0ba1db8b20" x1="0%" y1="0%" x2="100%" y2="0%"><stop data-v-423bf9ae="" offset="0%" style="stop-color: rgb(24, 27, 128); stop-opacity: 1;"></stop><stop data-v-423bf9ae="" offset="100%" style="stop-color: rgb(24, 30, 217); stop-opacity: 1;"></stop></linearGradient></defs><g data-v-423bf9ae="" id="02d00616-350f-496f-8a09-58f0a76950ff" transform="matrix(1.0359116792678833,0,0,1.0359116792678833,-6.790853023529053,-6.217842102050781)" stroke="none" fill="url(#cce01203-eb21-4aab-aae8-ab0ba1db8b20)"><path d="M34.571 16.321h5.716v5.716h-5.716zM34.571 28.368h5.716v5.716h-5.716zM34.571 40.416h5.716v5.716h-5.716zM34.571 52.464h5.716v5.716h-5.716zM80.349 16.321h5.716v5.716h-5.716zM80.349 28.368h5.716v5.716h-5.716zM80.349 40.416h5.716v5.716h-5.716zM80.349 52.464h5.716v5.716h-5.716zM52.324 50.356a1.12 1.12 0 0 1-1.118-1.117V26.271a1.117 1.117 0 0 1 1.702-.951l18.704 11.483c.332.203.532.563.532.951 0 .389-.201.749-.532.951L52.909 50.19a1.109 1.109 0 0 1-.585.166zm1.118-22.088v18.974l15.45-9.488-15.45-9.486z"></path><path d="M81.978 8.301c4.025 0 7.3 3.275 7.3 7.3V59.3c0 4.025-3.275 7.3-7.3 7.3H38.279c-4.025 0-7.3-3.275-7.3-7.3V15.601c0-4.025 3.275-7.3 7.3-7.3h43.699m0-2.235H38.279a9.535 9.535 0 0 0-9.535 9.535V59.3a9.535 9.535 0 0 0 9.535 9.535h43.699a9.535 9.535 0 0 0 9.535-9.535V15.601c-.001-5.266-4.27-9.535-9.535-9.535z"></path><path d="M74.63 71.069h-2.299l.225.924a7.487 7.487 0 0 1-.884 5.706 7.503 7.503 0 0 1-4.661 3.409l-38.573 9.386a7.502 7.502 0 0 1-5.706-.886 7.5 7.5 0 0 1-3.409-4.661L9.94 46.377a7.492 7.492 0 0 1 .886-5.706 7.5 7.5 0 0 1 4.661-3.409L26.51 34.58v-2.3l-11.551 2.809a9.724 9.724 0 0 0-6.043 4.419 9.72 9.72 0 0 0-1.148 7.396l9.386 38.57a9.707 9.707 0 0 0 4.417 6.043 9.725 9.725 0 0 0 5.065 1.429c.775 0 1.558-.094 2.331-.284l38.573-9.386a9.693 9.693 0 0 0 6.04-4.417 9.708 9.708 0 0 0 1.148-7.396l-.098-.394z"></path></g><!----><g data-v-423bf9ae="" id="77eadcaf-3bc1-4a0d-ac2a-b157e2fb99ee" fill="#000000" transform="matrix(0.45366984605789185,0,0,0.45366984605789185,106.93058013916016,58.68436050415039)"><path d="M0.25 5.01C0.25 5.17 0.43 5.17 0.56 5.17C0.71 5.17 0.76 5.15 0.77 4.97L0.88 3.89C0.90 3.81 1.44 3.75 2.20 3.75L4.19 3.75C4.24 3.75 4.27 4.35 4.27 4.97C4.27 6.43 4.21 12.18 4.09 12.18L3.22 12.18C3.00 12.18 2.95 12.19 2.95 12.39C2.95 12.63 2.97 12.68 3.16 12.68C3.49 12.68 4.47 12.64 4.89 12.64C5.31 12.64 6.24 12.68 6.57 12.68C6.73 12.68 6.76 12.61 6.76 12.40C6.76 12.24 6.73 12.18 6.57 12.18L5.57 12.18C5.54 12.18 5.54 11.76 5.54 11.31C5.54 9.56 5.63 5.96 5.63 5.92C5.64 5.18 5.64 3.75 5.74 3.75L7.35 3.75C8.06 3.75 8.89 3.78 8.89 3.85C8.89 3.99 8.85 4.90 8.85 4.97C8.85 5.12 8.92 5.17 9.10 5.17C9.30 5.17 9.37 5.17 9.37 5.03C9.37 3.93 9.42 3.40 9.42 3.14C9.42 2.94 9.34 2.94 9.14 2.94C8.99 2.94 8.93 2.98 8.92 3.16C8.92 3.23 8.27 3.28 7.43 3.28L2.44 3.28C1.78 3.28 0.97 3.28 0.97 3.21L0.97 3.07C0.97 2.94 0.84 2.94 0.74 2.94C0.52 2.94 0.49 3.00 0.48 3.19C0.42 3.89 0.25 4.97 0.25 5.01ZM17.18 12.39C17.18 12.63 17.18 12.68 17.37 12.68C17.70 12.68 18.63 12.64 19.05 12.64C19.47 12.64 20.30 12.68 20.62 12.68C20.79 12.68 20.79 12.61 20.79 12.40C20.79 12.24 20.79 12.18 20.62 12.18L19.70 12.18C19.61 12.18 19.57 9.93 19.57 8.20C19.57 8.01 19.57 8.01 19.70 8.01L24.93 8.01C25.00 8.01 25.02 8.01 25.02 8.18L25.02 9.91C25.02 11.05 25.00 12.18 24.95 12.18L24.18 12.18C23.95 12.18 23.91 12.19 23.91 12.39C23.91 12.63 23.93 12.68 24.12 12.68C24.44 12.68 25.28 12.64 25.70 12.64C26.12 12.64 26.71 12.68 27.03 12.68C27.20 12.68 27.22 12.61 27.22 12.40C27.22 12.24 27.20 12.18 27.03 12.18L26.29 12.18C26.25 12.18 26.24 9.27 26.24 7.04C26.24 5.40 26.24 3.70 26.28 3.70L26.89 3.70C27.12 3.70 27.16 3.68 27.16 3.49C27.16 3.25 27.15 3.19 26.95 3.19C26.81 3.19 26.18 3.23 25.59 3.23C24.92 3.23 24.32 3.19 24.09 3.19C23.90 3.19 23.87 3.22 23.87 3.44C23.87 3.67 23.94 3.70 24.11 3.70L24.91 3.70C24.96 3.70 25.02 4.79 25.02 5.71L25.02 7.42C25.02 7.59 25.02 7.59 24.85 7.59L19.74 7.59C19.57 7.59 19.57 7.59 19.57 7.38C19.57 6.96 19.56 6.23 19.56 5.53C19.56 4.66 19.57 3.70 19.63 3.70L20.40 3.70C20.62 3.70 20.66 3.68 20.66 3.49C20.66 3.25 20.65 3.19 20.45 3.19C20.13 3.19 19.54 3.23 18.94 3.23C18.35 3.23 17.86 3.19 17.64 3.19C17.46 3.19 17.36 3.21 17.36 3.44C17.36 3.68 17.47 3.70 17.64 3.70L18.26 3.70C18.31 3.70 18.33 5.59 18.33 7.18L18.33 8.61C18.33 10.08 18.31 12.18 18.24 12.18L17.43 12.18C17.21 12.18 17.18 12.19 17.18 12.39ZM35.25 12.39C35.25 12.63 35.28 12.68 35.48 12.68C35.80 12.68 36.76 12.64 37.18 12.64C37.60 12.64 42.11 12.68 42.43 12.68C42.56 12.68 42.71 12.66 42.71 12.49C42.71 12.07 42.76 11.23 42.76 10.53C42.76 10.39 42.60 10.39 42.48 10.39C42.36 10.39 42.24 10.39 42.24 10.51C42.22 11.06 42.22 11.41 42.20 11.76C42.17 12.01 42.17 12.04 42.07 12.04C41.92 12.04 39.28 12.08 37.79 12.08C37.72 12.08 37.67 10.11 37.63 8.26C37.63 8.06 37.67 8.09 37.81 8.09L40.10 8.09C40.80 8.09 40.82 8.20 40.82 8.30L40.82 9.00C40.82 9.14 41.01 9.14 41.12 9.14C41.22 9.14 41.34 9.13 41.34 9.02C41.34 8.83 41.31 8.33 41.31 7.83C41.31 7.32 41.34 6.83 41.34 6.71C41.34 6.59 41.20 6.58 41.10 6.58C40.99 6.58 40.82 6.59 40.82 6.72L40.82 7.45C40.82 7.62 40.38 7.63 40.10 7.63L37.76 7.63C37.65 7.63 37.63 7.63 37.63 7.45C37.62 6.75 37.60 6.06 37.60 5.46C37.60 5.12 37.60 3.71 37.69 3.71C38.92 3.71 41.43 3.75 41.43 3.81C41.43 3.99 41.38 4.83 41.38 4.89C41.38 5.04 41.45 5.10 41.64 5.10C41.83 5.10 41.90 5.08 41.90 4.94C41.90 3.85 41.96 3.36 41.96 3.09C41.96 2.91 41.87 2.90 41.68 2.90C41.48 2.90 41.48 2.95 41.45 3.11C41.44 3.25 41.51 3.25 40.60 3.25C39.98 3.25 37.84 3.29 37.07 3.29C36.58 3.29 35.64 3.25 35.55 3.25C35.42 3.25 35.36 3.30 35.36 3.49C35.36 3.72 35.43 3.74 35.60 3.74L36.26 3.74C36.32 3.74 36.39 4.79 36.39 5.71C36.39 5.80 36.44 8.27 36.44 9.83L36.44 11.17C36.44 11.84 36.41 12.18 36.39 12.18L35.53 12.18C35.31 12.18 35.25 12.21 35.25 12.39ZM60.52 12.39C60.52 12.63 60.54 12.68 60.73 12.68C60.91 12.68 61.29 12.64 61.91 12.64C62.54 12.64 63.10 12.68 63.42 12.68C63.59 12.68 63.59 12.61 63.59 12.40C63.59 12.24 63.59 12.18 63.42 12.18L62.22 12.18C62.17 12.18 62.16 11.54 62.16 10.79C62.16 9.46 62.17 7.48 62.17 5.99C62.17 5.25 62.17 4.84 62.19 4.28C62.19 4.02 62.26 4.14 62.38 4.28L69.27 12.66C69.36 12.75 69.44 12.89 69.55 12.89C69.66 12.89 69.73 12.77 69.73 12.54C69.73 12.39 69.90 6.65 69.92 4.48C69.92 4.06 69.94 3.70 69.97 3.70L70.60 3.70C70.83 3.70 70.88 3.68 70.88 3.49C70.88 3.25 70.88 3.19 70.69 3.19C70.49 3.19 70.06 3.23 69.50 3.23C68.88 3.23 68.08 3.19 67.98 3.19C67.82 3.19 67.82 3.26 67.82 3.47C67.82 3.64 67.82 3.70 67.98 3.70L69.29 3.70C69.30 3.70 69.30 4.33 69.30 4.44C69.30 5.85 69.33 8.33 69.33 9.70L69.33 10.29C69.33 10.57 69.31 10.65 69.09 10.37L63.41 3.39C63.29 3.25 63.27 3.19 63.10 3.19C63.01 3.19 62.64 3.23 62.33 3.23C62.03 3.23 60.96 3.19 60.76 3.19C60.59 3.19 60.56 3.26 60.56 3.47C60.56 3.64 60.59 3.70 60.76 3.70L61.67 3.70C61.67 4.17 61.63 8.53 61.56 10.79C61.53 11.69 61.54 12.18 61.43 12.18L60.79 12.18C60.56 12.18 60.52 12.19 60.52 12.39ZM78.92 12.39C78.92 12.63 78.95 12.68 79.14 12.68C79.46 12.68 80.43 12.64 80.85 12.64C81.27 12.64 85.78 12.68 86.10 12.68C86.23 12.68 86.38 12.66 86.38 12.49C86.38 12.07 86.42 11.23 86.42 10.53C86.42 10.39 86.27 10.39 86.14 10.39C86.03 10.39 85.90 10.39 85.90 10.51C85.89 11.06 85.89 11.41 85.86 11.76C85.83 12.01 85.83 12.04 85.74 12.04C85.58 12.04 82.95 12.08 81.45 12.08C81.38 12.08 81.34 10.11 81.30 8.26C81.30 8.06 81.34 8.09 81.48 8.09L83.76 8.09C84.46 8.09 84.49 8.20 84.49 8.30L84.49 9.00C84.49 9.14 84.67 9.14 84.78 9.14C84.88 9.14 85.01 9.13 85.01 9.02C85.01 8.83 84.98 8.33 84.98 7.83C84.98 7.32 85.01 6.83 85.01 6.71C85.01 6.59 84.87 6.58 84.77 6.58C84.66 6.58 84.49 6.59 84.49 6.72L84.49 7.45C84.49 7.62 84.04 7.63 83.76 7.63L81.42 7.63C81.31 7.63 81.30 7.63 81.30 7.45C81.28 6.75 81.27 6.06 81.27 5.46C81.27 5.12 81.27 3.71 81.35 3.71C82.59 3.71 85.09 3.75 85.09 3.81C85.09 3.99 85.05 4.83 85.05 4.89C85.05 5.04 85.12 5.10 85.30 5.10C85.50 5.10 85.57 5.08 85.57 4.94C85.57 3.85 85.62 3.36 85.62 3.09C85.62 2.91 85.54 2.90 85.34 2.90C85.15 2.90 85.15 2.95 85.12 3.11C85.11 3.25 85.18 3.25 84.27 3.25C83.65 3.25 81.51 3.29 80.74 3.29C80.25 3.29 79.31 3.25 79.21 3.25C79.09 3.25 79.03 3.30 79.03 3.49C79.03 3.72 79.10 3.74 79.27 3.74L79.93 3.74C79.98 3.74 80.05 4.79 80.05 5.71C80.05 5.80 80.11 8.27 80.11 9.83L80.11 11.17C80.11 11.84 80.08 12.18 80.05 12.18L79.20 12.18C78.97 12.18 78.92 12.21 78.92 12.39ZM93.97 12.43C93.97 12.66 94.05 12.68 94.23 12.68C94.46 12.68 94.98 12.64 95.40 12.64C95.82 12.64 96.24 12.68 96.56 12.68C96.75 12.68 96.80 12.63 96.80 12.39C96.80 12.19 96.73 12.18 96.50 12.18L95.73 12.18C95.56 12.18 95.63 12.11 95.76 11.90C96.29 11.03 97.64 9.09 98.04 8.51C98.08 8.44 98.11 8.46 98.15 8.53C98.69 9.42 99.82 11.30 100.18 12.03C100.25 12.14 100.24 12.18 100.11 12.18L99.41 12.18C99.19 12.18 99.12 12.19 99.12 12.39C99.12 12.63 99.16 12.68 99.36 12.68C99.68 12.68 100.56 12.64 100.98 12.64C101.40 12.64 102.21 12.68 102.44 12.68C102.66 12.68 102.70 12.67 102.70 12.43C102.70 12.19 102.68 12.18 102.41 12.18L101.93 12.18C101.85 12.18 99.40 8.32 98.97 7.63C98.94 7.59 98.92 7.53 98.97 7.48C99.25 7.06 100.25 5.78 101.08 4.59C101.39 4.14 101.70 3.77 101.74 3.77L102.06 3.77C102.23 3.77 102.33 3.75 102.33 3.51C102.33 3.29 102.24 3.26 102.06 3.26C101.84 3.26 101.42 3.30 101.00 3.30C100.49 3.30 100.13 3.26 99.90 3.26C99.71 3.26 99.67 3.32 99.67 3.56C99.67 3.75 99.74 3.77 99.96 3.77L100.74 3.77L100.74 3.78C100.74 3.99 100.32 4.68 99.86 5.36C99.74 5.56 98.98 6.72 98.71 7.10C98.69 7.14 98.67 7.15 98.66 7.15C98.63 7.15 98.57 7.04 98.53 6.99C98.07 6.17 97.19 4.61 96.91 3.92C96.87 3.81 96.81 3.77 96.98 3.77L97.55 3.77C97.78 3.77 97.85 3.75 97.85 3.56C97.85 3.32 97.83 3.26 97.64 3.26C97.31 3.26 96.67 3.30 96.25 3.30C95.83 3.30 94.81 3.26 94.58 3.26C94.40 3.26 94.32 3.28 94.32 3.51C94.32 3.75 94.43 3.77 94.60 3.77L95.14 3.77C95.23 3.77 97.55 7.56 97.76 7.91C97.83 8.01 97.85 8.05 97.78 8.15C97.10 9.02 96.38 9.88 95.76 10.79C95.26 11.52 94.82 12.18 94.75 12.18L94.23 12.18C94.07 12.18 93.97 12.19 93.97 12.43ZM110.05 5.01C110.05 5.17 110.24 5.17 110.36 5.17C110.52 5.17 110.56 5.15 110.57 4.97L110.68 3.89C110.70 3.81 111.24 3.75 112 3.75L113.99 3.75C114.04 3.75 114.07 4.35 114.07 4.97C114.07 6.43 114.02 12.18 113.89 12.18L113.02 12.18C112.80 12.18 112.76 12.19 112.76 12.39C112.76 12.63 112.77 12.68 112.97 12.68C113.29 12.68 114.27 12.64 114.69 12.64C115.11 12.64 116.05 12.68 116.37 12.68C116.54 12.68 116.56 12.61 116.56 12.40C116.56 12.24 116.54 12.18 116.37 12.18L115.37 12.18C115.35 12.18 115.35 11.76 115.35 11.31C115.35 9.56 115.43 5.96 115.43 5.92C115.44 5.18 115.44 3.75 115.54 3.75L117.15 3.75C117.87 3.75 118.69 3.78 118.69 3.85C118.69 3.99 118.65 4.90 118.65 4.97C118.65 5.12 118.72 5.17 118.90 5.17C119.10 5.17 119.17 5.17 119.17 5.03C119.17 3.93 119.22 3.40 119.22 3.14C119.22 2.94 119.14 2.94 118.94 2.94C118.79 2.94 118.73 2.98 118.72 3.16C118.72 3.23 118.08 3.28 117.24 3.28L112.24 3.28C111.58 3.28 110.77 3.28 110.77 3.21L110.77 3.07C110.77 2.94 110.64 2.94 110.54 2.94C110.32 2.94 110.29 3.00 110.28 3.19C110.22 3.89 110.05 4.97 110.05 5.01ZM136.78 3.51C136.78 3.75 136.86 3.79 137.03 3.79L137.89 3.77C137.94 3.77 138.00 5.52 138.00 7.11L138.00 11.63C138.00 11.93 137.98 12.18 137.96 12.18L137.23 12.18C137.00 12.18 136.93 12.19 136.93 12.39C136.93 12.63 136.96 12.68 137.16 12.68C137.28 12.68 138.24 12.64 138.66 12.64C138.84 12.64 139.36 12.67 140 12.67C141.55 12.67 143.96 12.43 143.96 10.23C143.96 8.27 142.14 7.94 141.46 7.84C141.37 7.83 141.36 7.83 141.36 7.81C141.36 7.80 141.40 7.78 141.47 7.76C142.11 7.52 143.56 6.90 143.56 5.54C143.56 3.81 142.09 3.25 140.41 3.25C139.83 3.25 139.23 3.29 138.68 3.29C138.26 3.29 137.26 3.26 137.03 3.26C136.85 3.26 136.78 3.28 136.78 3.51ZM139.23 8.19C139.23 8.12 139.23 8.08 139.34 8.08L139.82 8.08C140.43 8.08 141.08 8.09 141.46 8.22C142.32 8.51 142.65 9.16 142.65 10.14C142.65 11.17 142.18 12.18 140.17 12.18L139.33 12.18C139.24 12.18 139.23 9.02 139.23 8.19ZM139.23 7.59L139.23 6.92C139.23 5.87 139.24 3.71 139.29 3.68C139.34 3.65 139.65 3.63 139.86 3.63C141.27 3.63 142.30 4.41 142.30 5.77C142.30 6.92 141.57 7.46 140.94 7.66C140.85 7.69 140.76 7.70 140.67 7.70C140.59 7.70 140.45 7.69 140.21 7.69L139.41 7.69C139.23 7.69 139.23 7.67 139.23 7.59ZM152.07 12.39C152.07 12.63 152.10 12.68 152.29 12.68C152.61 12.68 153.58 12.64 154 12.64C154.42 12.64 158.93 12.68 159.25 12.68C159.38 12.68 159.53 12.66 159.53 12.49C159.53 12.07 159.57 11.23 159.57 10.53C159.57 10.39 159.42 10.39 159.29 10.39C159.18 10.39 159.05 10.39 159.05 10.51C159.04 11.06 159.04 11.41 159.01 11.76C158.98 12.01 158.98 12.04 158.89 12.04C158.73 12.04 156.10 12.08 154.60 12.08C154.53 12.08 154.49 10.11 154.45 8.26C154.45 8.06 154.49 8.09 154.63 8.09L156.91 8.09C157.61 8.09 157.64 8.20 157.64 8.30L157.64 9.00C157.64 9.14 157.82 9.14 157.93 9.14C158.03 9.14 158.16 9.13 158.16 9.02C158.16 8.83 158.13 8.33 158.13 7.83C158.13 7.32 158.16 6.83 158.16 6.71C158.16 6.59 158.02 6.58 157.92 6.58C157.81 6.58 157.64 6.59 157.64 6.72L157.64 7.45C157.64 7.62 157.19 7.63 156.91 7.63L154.57 7.63C154.46 7.63 154.45 7.63 154.45 7.45C154.43 6.75 154.42 6.06 154.42 5.46C154.42 5.12 154.42 3.71 154.50 3.71C155.74 3.71 158.24 3.75 158.24 3.81C158.24 3.99 158.20 4.83 158.20 4.89C158.20 5.04 158.27 5.10 158.45 5.10C158.65 5.10 158.72 5.08 158.72 4.94C158.72 3.85 158.77 3.36 158.77 3.09C158.77 2.91 158.69 2.90 158.49 2.90C158.30 2.90 158.30 2.95 158.27 3.11C158.26 3.25 158.33 3.25 157.42 3.25C156.80 3.25 154.66 3.29 153.89 3.29C153.40 3.29 152.46 3.25 152.36 3.25C152.24 3.25 152.18 3.30 152.18 3.49C152.18 3.72 152.25 3.74 152.42 3.74L153.08 3.74C153.13 3.74 153.20 4.79 153.20 5.71C153.20 5.80 153.26 8.27 153.26 9.83L153.26 11.17C153.26 11.84 153.23 12.18 153.20 12.18L152.35 12.18C152.12 12.18 152.07 12.21 152.07 12.39ZM167.75 5.77C167.75 9.07 172.73 8.20 172.73 10.65C172.73 11.59 171.89 12.31 170.91 12.31C170.09 12.31 168.49 11.83 168.46 11.47L168.38 10.15C168.36 9.97 168.29 9.91 168.11 9.91L168.04 9.91C167.83 9.91 167.83 10.00 167.83 10.12C167.83 10.32 167.94 11.66 167.97 12.17C167.99 12.38 169.25 12.85 170.79 12.85C172.35 12.85 173.96 11.87 173.96 10.11C173.96 6.79 168.99 7.87 168.99 5.32C168.99 4.31 169.78 3.56 170.81 3.56C171.84 3.56 172.93 4.58 172.93 4.89C172.93 5.01 172.89 5.73 172.89 5.78C172.89 5.92 172.93 5.99 173.19 5.99C173.43 5.99 173.45 5.94 173.45 5.75C173.45 5.04 173.53 3.68 173.53 3.53C173.53 3.30 173.49 3.29 173.22 3.29C173.00 3.29 172.98 3.32 172.97 3.53C172.97 3.61 172.96 3.78 172.91 3.78C172.86 3.78 172.77 3.74 172.70 3.68C171.91 3.14 171.29 3.08 170.79 3.08C169.26 3.08 167.75 4.17 167.75 5.77ZM181.52 5.01C181.52 5.17 181.71 5.17 181.83 5.17C181.99 5.17 182.03 5.15 182.04 4.97L182.15 3.89C182.17 3.81 182.71 3.75 183.47 3.75L185.46 3.75C185.51 3.75 185.54 4.35 185.54 4.97C185.54 6.43 185.49 12.18 185.36 12.18L184.49 12.18C184.27 12.18 184.23 12.19 184.23 12.39C184.23 12.63 184.24 12.68 184.44 12.68C184.76 12.68 185.74 12.64 186.16 12.64C186.58 12.64 187.52 12.68 187.84 12.68C188.01 12.68 188.03 12.61 188.03 12.40C188.03 12.24 188.01 12.18 187.84 12.18L186.84 12.18C186.82 12.18 186.82 11.76 186.82 11.31C186.82 9.56 186.90 5.96 186.90 5.92C186.91 5.18 186.91 3.75 187.01 3.75L188.62 3.75C189.34 3.75 190.16 3.78 190.16 3.85C190.16 3.99 190.12 4.90 190.12 4.97C190.12 5.12 190.19 5.17 190.37 5.17C190.57 5.17 190.64 5.17 190.64 5.03C190.64 3.93 190.69 3.40 190.69 3.14C190.69 2.94 190.61 2.94 190.41 2.94C190.26 2.94 190.20 2.98 190.19 3.16C190.19 3.23 189.55 3.28 188.71 3.28L183.71 3.28C183.05 3.28 182.24 3.28 182.24 3.21L182.24 3.07C182.24 2.94 182.11 2.94 182.01 2.94C181.79 2.94 181.76 3.00 181.75 3.19C181.69 3.89 181.52 4.97 181.52 5.01ZM207.98 5.01C207.98 5.17 208.17 5.17 208.29 5.17C208.45 5.17 208.49 5.15 208.50 4.97L208.61 3.89C208.63 3.81 209.17 3.75 209.93 3.75L211.92 3.75C211.97 3.75 212.00 4.35 212.00 4.97C212.00 6.43 211.95 12.18 211.82 12.18L210.95 12.18C210.73 12.18 210.69 12.19 210.69 12.39C210.69 12.63 210.70 12.68 210.90 12.68C211.22 12.68 212.20 12.64 212.62 12.64C213.04 12.64 213.98 12.68 214.30 12.68C214.47 12.68 214.49 12.61 214.49 12.40C214.49 12.24 214.47 12.18 214.30 12.18L213.30 12.18C213.28 12.18 213.28 11.76 213.28 11.31C213.28 9.56 213.36 5.96 213.36 5.92C213.37 5.18 213.37 3.75 213.47 3.75L215.08 3.75C215.80 3.75 216.62 3.78 216.62 3.85C216.62 3.99 216.58 4.90 216.58 4.97C216.58 5.12 216.65 5.17 216.83 5.17C217.03 5.17 217.10 5.17 217.10 5.03C217.10 3.93 217.15 3.40 217.15 3.14C217.15 2.94 217.07 2.94 216.87 2.94C216.72 2.94 216.66 2.98 216.65 3.16C216.65 3.23 216.01 3.28 215.17 3.28L210.17 3.28C209.51 3.28 208.70 3.28 208.70 3.21L208.70 3.07C208.70 2.94 208.57 2.94 208.47 2.94C208.25 2.94 208.22 3.00 208.21 3.19C208.15 3.89 207.98 4.97 207.98 5.01ZM224.91 12.39C224.91 12.63 224.91 12.68 225.11 12.68C225.43 12.68 226.37 12.64 226.79 12.64C227.21 12.64 228.03 12.68 228.35 12.68C228.52 12.68 228.52 12.61 228.52 12.40C228.52 12.24 228.52 12.18 228.35 12.18L227.43 12.18C227.35 12.18 227.30 9.93 227.30 8.20C227.30 8.01 227.30 8.01 227.43 8.01L232.67 8.01C232.74 8.01 232.75 8.01 232.75 8.18L232.75 9.91C232.75 11.05 232.74 12.18 232.68 12.18L231.91 12.18C231.69 12.18 231.64 12.19 231.64 12.39C231.64 12.63 231.66 12.68 231.85 12.68C232.18 12.68 233.02 12.64 233.44 12.64C233.86 12.64 234.44 12.68 234.77 12.68C234.93 12.68 234.95 12.61 234.95 12.40C234.95 12.24 234.93 12.18 234.77 12.18L234.02 12.18C233.98 12.18 233.97 9.27 233.97 7.04C233.97 5.40 233.97 3.70 234.01 3.70L234.63 3.70C234.85 3.70 234.89 3.68 234.89 3.49C234.89 3.25 234.88 3.19 234.68 3.19C234.54 3.19 233.91 3.23 233.32 3.23C232.65 3.23 232.05 3.19 231.83 3.19C231.63 3.19 231.60 3.22 231.60 3.44C231.60 3.67 231.67 3.70 231.84 3.70L232.64 3.70C232.69 3.70 232.75 4.79 232.75 5.71L232.75 7.42C232.75 7.59 232.75 7.59 232.58 7.59L227.47 7.59C227.30 7.59 227.30 7.59 227.30 7.38C227.30 6.96 227.29 6.23 227.29 5.53C227.29 4.66 227.30 3.70 227.36 3.70L228.13 3.70C228.35 3.70 228.40 3.68 228.40 3.49C228.40 3.25 228.38 3.19 228.19 3.19C227.86 3.19 227.28 3.23 226.67 3.23C226.09 3.23 225.60 3.19 225.37 3.19C225.19 3.19 225.09 3.21 225.09 3.44C225.09 3.68 225.20 3.70 225.37 3.70L225.99 3.70C226.04 3.70 226.06 5.59 226.06 7.18L226.06 8.61C226.06 10.08 226.04 12.18 225.97 12.18L225.16 12.18C224.94 12.18 224.91 12.19 224.91 12.39ZM242.84 12.39C242.84 12.63 242.89 12.68 243.08 12.68C243.40 12.68 244.16 12.64 244.87 12.64C245.53 12.64 246.33 12.68 246.55 12.68C246.72 12.68 246.75 12.61 246.75 12.40C246.75 12.24 246.72 12.18 246.55 12.18L245.59 12.18C245.49 12.18 245.46 9.55 245.46 7.76L245.46 5.87C245.46 5.14 245.49 3.70 245.59 3.70L246.50 3.70C246.72 3.70 246.75 3.68 246.75 3.49C246.75 3.25 246.72 3.19 246.55 3.19C246.23 3.19 245.56 3.23 244.90 3.23C244.09 3.23 243.38 3.19 243.15 3.19C242.97 3.19 242.90 3.21 242.90 3.44C242.90 3.68 242.98 3.70 243.15 3.70L244.08 3.70C244.12 3.70 244.19 4.79 244.19 5.71L244.19 7.08C244.19 8.92 244.17 12.18 244.06 12.18L243.14 12.18C242.91 12.18 242.84 12.19 242.84 12.39ZM254.65 12.39C254.65 12.63 254.66 12.68 254.86 12.68C255.04 12.68 255.42 12.64 256.03 12.64C256.66 12.64 257.22 12.68 257.54 12.68C257.71 12.68 257.71 12.61 257.71 12.40C257.71 12.24 257.71 12.18 257.54 12.18L256.34 12.18C256.30 12.18 256.28 11.54 256.28 10.79C256.28 9.46 256.30 7.48 256.30 5.99C256.30 5.25 256.30 4.84 256.31 4.28C256.31 4.02 256.38 4.14 256.51 4.28L263.40 12.66C263.48 12.75 263.56 12.89 263.68 12.89C263.79 12.89 263.86 12.77 263.86 12.54C263.86 12.39 264.03 6.65 264.04 4.48C264.04 4.06 264.07 3.70 264.10 3.70L264.73 3.70C264.95 3.70 265.01 3.68 265.01 3.49C265.01 3.25 265.01 3.19 264.81 3.19C264.61 3.19 264.18 3.23 263.62 3.23C263.00 3.23 262.21 3.19 262.11 3.19C261.94 3.19 261.94 3.26 261.94 3.47C261.94 3.64 261.94 3.70 262.11 3.70L263.41 3.70C263.42 3.70 263.42 4.33 263.42 4.44C263.42 5.85 263.45 8.33 263.45 9.70L263.45 10.29C263.45 10.57 263.44 10.65 263.21 10.37L257.53 3.39C257.42 3.25 257.39 3.19 257.22 3.19C257.14 3.19 256.76 3.23 256.45 3.23C256.16 3.23 255.08 3.19 254.88 3.19C254.72 3.19 254.69 3.26 254.69 3.47C254.69 3.64 254.72 3.70 254.88 3.70L255.79 3.70C255.79 4.17 255.75 8.53 255.68 10.79C255.65 11.69 255.67 12.18 255.56 12.18L254.91 12.18C254.69 12.18 254.65 12.19 254.65 12.39ZM273.11 7.91C273.11 11.40 275.48 12.89 278.07 12.89C279.96 12.89 281.96 11.89 281.96 11.58C281.96 11.12 281.97 10.68 281.97 10.33C281.97 9.81 281.99 9.56 282.11 9.56L282.55 9.56C282.69 9.56 282.70 9.39 282.70 9.30C282.70 9.18 282.69 9.06 282.55 9.06C282.32 9.06 281.96 9.10 281.29 9.10C280.84 9.10 280.10 9.07 279.41 9.06C279.27 9.06 279.27 9.24 279.27 9.35C279.27 9.45 279.30 9.56 279.43 9.56L280.64 9.56C280.69 9.56 280.74 9.87 280.74 10.33C280.74 10.82 280.73 11.41 280.70 11.65C280.69 11.76 280.04 12.39 278.46 12.39C276.22 12.39 274.62 10.29 274.62 7.94C274.62 5.42 276.18 3.54 278.18 3.54C280.07 3.54 281.25 4.87 281.25 5.03C281.25 5.15 281.19 6.12 281.19 6.17C281.19 6.31 281.23 6.36 281.50 6.36C281.69 6.36 281.76 6.33 281.76 6.15C281.76 5.43 281.81 3.75 281.81 3.56C281.81 3.36 281.71 3.33 281.50 3.33C281.27 3.33 281.25 3.39 281.25 3.56L281.25 3.91C281.25 3.99 281.20 4.02 281.08 3.92C280.80 3.72 279.80 3.08 278.24 3.08C275.39 3.08 273.11 4.79 273.11 7.91Z"></path></g></svg>