<svg data-v-fde0c5aa="" xmlns="http://www.w3.org/2000/svg" viewBox="0 0 300 300" class="font"><!----><defs data-v-fde0c5aa=""><!----></defs><rect data-v-fde0c5aa="" fill="transparent" x="0" y="0" width="300px" height="300px" class="logo-background-square"></rect><defs data-v-fde0c5aa=""><linearGradient data-v-fde0c5aa="" gradientTransform="rotate(25)" id="0421e783-cd5e-40e4-80cb-fa73b5b68785" x1="0%" y1="0%" x2="100%" y2="0%"><stop data-v-fde0c5aa="" offset="0%" stop-color="#181B80" stop-opacity="1"></stop><stop data-v-fde0c5aa="" offset="100%" stop-color="#181ED9" stop-opacity="1"></stop></linearGradient></defs><g data-v-fde0c5aa="" id="57cf04f8-79db-45f9-aa95-546ebfeedd9e" fill="url(#0421e783-cd5e-40e4-80cb-fa73b5b68785)" transform="matrix(7.44448709487915,0,0,7.44448709487915,33.9699652748084,88.91798232776412)"><path d="M1.11 13.02L1.11 13.02L1.11 13.02Q0.96 12.73 0.88 12.40L0.88 12.40L0.88 12.40Q0.81 12.07 0.81 11.70L0.81 11.70L0.81 11.70Q0.81 11.33 0.93 10.73L0.93 10.73L0.93 10.73Q1.06 10.13 1.28 9.46L1.28 9.46L1.28 9.46Q1.50 8.80 1.79 8.10L1.79 8.10L1.79 8.10Q2.08 7.40 2.41 6.74L2.41 6.74L2.41 6.74Q3.08 5.36 3.74 4.35L3.74 4.35L3.66 4.35L3.66 4.35Q2.85 4.35 2.15 4.72L2.15 4.72L2.15 4.72Q1.98 4.85 1.83 4.85L1.83 4.85L1.83 4.85Q1.50 4.85 1.19 4.53L1.19 4.53L1.19 4.53Q0.48 3.77 2.04 3.28L2.04 3.28L2.04 3.28Q2.77 3.04 3.22 3.04L3.22 3.04L3.22 3.04Q3.66 3.04 3.94 3.18L3.94 3.18L3.94 3.18Q4.21 3.32 4.40 3.51L4.40 3.51L4.40 3.51Q4.70 3.81 4.83 4.11L4.83 4.11L4.83 4.11Q4.96 4.40 4.96 4.62L4.96 4.62L4.96 4.62Q4.96 4.85 4.82 5.22L4.82 5.22L4.82 5.22Q4.69 5.59 4.48 6.02L4.48 6.02L4.02 6.92L4.02 6.92Q3.77 7.39 3.53 7.91L3.53 7.91L3.53 7.91Q3.28 8.43 3.04 8.95L3.04 8.95L3.04 8.95Q2.79 9.47 2.60 9.96L2.60 9.96L2.60 9.96Q2.18 11.06 2.18 11.83L2.18 11.83L2.18 11.83Q2.18 12.29 2.27 12.59L2.27 12.59L2.27 12.59Q2.57 12.11 3.01 11.59L3.01 11.59L3.96 10.52L3.96 10.52Q5.63 8.73 6.13 8.14L6.13 8.14L6.13 8.14Q7.29 6.77 7.92 5.55L7.92 5.55L7.92 5.55Q8.17 5.07 8.17 4.67L8.17 4.67L8.17 4.67Q8.17 3.94 7.77 3.57L7.77 3.57L7.77 3.57Q7.62 3.42 7.73 3.22L7.73 3.22L7.73 3.22Q7.83 3.01 7.94 2.91L7.94 2.91L7.94 2.91Q8.21 2.67 8.54 2.67L8.54 2.67L8.54 2.67Q8.88 2.67 9.11 2.81L9.11 2.81L9.11 2.81Q9.34 2.95 9.49 3.16L9.49 3.16L9.49 3.16Q9.78 3.58 9.78 4.19L9.78 4.19L9.78 4.19Q9.78 4.81 9.52 5.50L9.52 5.50L9.52 5.50Q9.26 6.19 8.83 6.85L8.83 6.85L8.83 6.85Q8.40 7.51 7.86 8.13L7.86 8.13L7.86 8.13Q7.31 8.75 6.75 9.31L6.75 9.31L4.68 11.26L4.68 11.26Q3.75 12.20 3.43 12.55L3.43 12.55L3.43 12.55Q2.83 13.22 2.66 13.43L2.66 13.43L2.66 13.43Q2.49 13.64 2.35 13.69L2.35 13.69L2.35 13.69Q2.21 13.73 1.98 13.73L1.98 13.73L1.98 13.73Q1.75 13.73 1.51 13.52L1.51 13.52L1.51 13.52Q1.26 13.32 1.11 13.02ZM20.51 12.29L20.51 12.29L20.51 12.29Q20.69 12.29 20.69 12.53L20.69 12.53L20.69 12.53Q20.69 12.78 20.60 12.93L20.60 12.93L20.60 12.93Q20.51 13.09 20.39 13.22L20.39 13.22L20.39 13.22Q20.28 13.35 20.10 13.47L20.10 13.47L20.10 13.47Q19.68 13.74 19.22 13.74L19.22 13.74L19.22 13.74Q18.76 13.74 18.49 13.63L18.49 13.63L18.49 13.63Q18.22 13.51 18.02 13.29L18.02 13.29L18.02 13.29Q17.60 12.82 17.60 11.98L17.60 11.98L17.60 11.98Q17.60 11.09 17.94 9.81L17.94 9.81L17.94 9.81Q18.28 8.53 18.60 7.62L18.60 7.62L18.60 7.62Q18.92 6.71 19.25 5.88L19.25 5.88L19.87 4.31L19.87 4.31Q18.85 5.22 17.30 8.13L17.30 8.13L15.65 11.27L15.65 11.27Q14.32 13.74 13.75 13.74L13.75 13.74L13.75 13.74Q13.20 13.74 13.00 13.26L13.00 13.26L13.00 13.26Q12.81 12.80 12.81 11.71L12.81 11.71L12.81 11.71Q12.81 10.61 12.98 9.60L12.98 9.60L12.98 9.60Q13.16 8.59 13.43 7.63L13.43 7.63L13.43 7.63Q13.89 5.93 14.63 4.25L14.63 4.25L14.63 4.25Q13.91 4.66 13.04 6.05L13.04 6.05L13.04 6.05Q12.37 7.16 12.09 7.68L12.09 7.68L10.33 10.92L10.33 10.92Q9.23 12.93 8.56 13.40L8.56 13.40L8.56 13.40Q8.07 13.74 7.51 13.74L7.51 13.74L7.51 13.74Q7.03 13.74 6.82 13.44L6.82 13.44L6.82 13.44Q6.74 13.32 6.74 13.21L6.74 13.21L6.74 13.21Q6.74 13.11 6.80 13.09L6.80 13.09L6.80 13.09Q7.23 12.97 7.40 12.85L7.40 12.85L7.40 12.85Q7.57 12.72 7.75 12.59L7.75 12.59L7.75 12.59Q7.92 12.46 8.24 12.02L8.24 12.02L8.24 12.02Q8.57 11.59 8.96 10.98L8.96 10.98L8.96 10.98Q9.34 10.36 9.75 9.60L9.75 9.60L10.62 8.00L10.62 8.00Q11.83 5.68 13.14 4.28L13.14 4.28L13.14 4.28Q13.60 3.78 14.05 3.51L14.05 3.51L14.05 3.51Q14.51 3.19 15.10 3.08L15.10 3.08L15.10 3.08Q15.26 3.04 15.40 3.04L15.40 3.04L15.40 3.04Q15.54 3.04 15.72 3.08L15.72 3.08L15.72 3.08Q15.89 3.12 16.02 3.21L16.02 3.21L16.02 3.21Q16.32 3.42 16.20 3.76L16.20 3.76L16.20 3.76Q16.15 3.96 15.99 4.38L15.99 4.38L15.62 5.35L15.62 5.35Q14.33 8.92 14.21 11.85L14.21 11.85L14.21 11.85Q14.57 11.22 14.94 10.49L14.94 10.49L15.71 8.96L16.52 7.41L16.52 7.41Q18.40 3.92 20.02 3.42L20.02 3.42L20.02 3.42Q20.35 3.31 20.58 3.31L20.58 3.31L20.58 3.31Q20.80 3.31 20.93 3.37L20.93 3.37L20.93 3.37Q21.06 3.42 21.16 3.51L21.16 3.51L21.16 3.51Q21.40 3.73 21.33 3.96L21.33 3.96L21.33 3.96Q21.25 4.19 21.13 4.55L21.13 4.55L20.14 7.44L19.78 8.57L19.78 8.57Q19.20 10.54 19.09 11.59L19.09 11.59L19.09 11.59Q19.04 12.04 19.19 12.29L19.19 12.29L19.19 12.29Q19.33 12.54 19.57 12.54L19.57 12.54L19.57 12.54Q19.82 12.54 19.96 12.50L19.96 12.50L19.96 12.50Q20.10 12.46 20.20 12.41L20.20 12.41L20.38 12.33L20.38 12.33Q20.45 12.29 20.51 12.29ZM26.35 12.41L26.35 12.12L26.35 12.12Q26.35 11.20 26.88 9.29L26.88 9.29L26.88 9.29Q25.23 9.33 24.36 9.39L24.36 9.39L24.36 9.39Q24.09 9.87 23.87 10.31L23.87 10.31L23.45 11.15L23.45 11.15Q22.61 12.80 21.94 13.33L21.94 13.33L21.94 13.33Q21.42 13.74 20.85 13.74L20.85 13.74L20.85 13.74Q20.41 13.74 20.19 13.45L20.19 13.45L20.19 13.45Q20.10 13.34 20.09 13.23L20.09 13.23L20.09 13.23Q20.08 13.13 20.14 13.09L20.14 13.09L20.14 13.09Q20.92 12.80 21.42 12.20L21.42 12.20L21.42 12.20Q21.85 11.66 22.28 10.88L22.28 10.88L23.05 9.50L22.62 9.56L22.62 9.56Q22.21 9.63 22.21 9.43L22.21 9.43L22.21 9.43Q22.21 9.22 22.46 9.04L22.46 9.04L22.46 9.04Q22.89 8.72 23.30 8.61L23.30 8.61L23.59 8.54L23.59 8.54Q24.71 6.69 25.30 5.95L25.30 5.95L25.30 5.95Q25.89 5.22 26.38 4.72L26.38 4.72L26.38 4.72Q26.87 4.23 27.41 3.86L27.41 3.86L27.41 3.86Q28.59 3.04 29.74 3.04L29.74 3.04L29.74 3.04Q30.09 3.04 30.21 3.19L30.21 3.19L30.21 3.19Q30.42 3.41 30.34 3.67L30.34 3.67L30.34 3.67Q30.27 3.92 30.10 4.40L30.10 4.40L30.10 4.40Q29.00 7.38 28.77 8.09L28.77 8.09L28.77 8.09Q28.88 8.09 28.96 8.09L28.96 8.09L29.11 8.09L29.11 8.09Q29.88 8.09 29.93 8.24L29.93 8.24L29.93 8.24Q29.95 8.29 29.95 8.41L29.95 8.41L29.95 8.41Q29.95 8.54 29.87 8.70L29.87 8.70L29.87 8.70Q29.79 8.87 29.61 8.98L29.61 8.98L29.61 8.98Q29.25 9.23 28.40 9.27L28.40 9.27L28.40 9.27Q27.93 10.88 27.87 11.49L27.87 11.49L27.87 11.49Q27.80 12.11 27.91 12.32L27.91 12.32L27.91 12.32Q28.01 12.54 28.21 12.54L28.21 12.54L28.21 12.54Q28.40 12.54 28.53 12.50L28.53 12.50L28.53 12.50Q28.65 12.46 28.75 12.41L28.75 12.41L28.92 12.33L28.92 12.33Q28.99 12.29 29.06 12.29L29.06 12.29L29.06 12.29Q29.13 12.29 29.18 12.38L29.18 12.38L29.18 12.38Q29.23 12.48 29.23 12.63L29.23 12.63L29.23 12.63Q29.23 12.78 29.10 12.98L29.10 12.98L29.10 12.98Q28.98 13.19 28.77 13.36L28.77 13.36L28.77 13.36Q28.29 13.74 27.69 13.74L27.69 13.74L27.69 13.74Q26.77 13.74 26.46 12.92L26.46 12.92L26.46 12.92Q26.35 12.63 26.35 12.41L26.35 12.41ZM25.52 7.40L24.99 8.31L24.99 8.31Q26.20 8.15 27.24 8.12L27.24 8.12L27.24 8.12Q27.43 7.53 27.65 6.96L27.65 6.96L28.08 5.87L28.08 5.87Q28.29 5.35 28.51 4.88L28.51 4.88L28.90 4.04L28.90 4.04Q27.48 4.41 26.09 6.49L26.09 6.49L26.09 6.49Q25.80 6.93 25.52 7.40L25.52 7.40Z"></path></g><!----><!----></svg>