<?xml version="1.0" encoding="UTF-8" standalone="no"?>
<svg
   data-v-fde0c5aa=""
   viewBox="0 0 300 300"
   class="iconLeftSlogan"
   version="1.1"
   id="svg6"
   sodipodi:docname="vma-icon.svg"
   inkscape:version="1.3-dev (74adff3496, 2022-05-26)"
   xmlns:inkscape="http://www.inkscape.org/namespaces/inkscape"
   xmlns:sodipodi="http://sodipodi.sourceforge.net/DTD/sodipodi-0.dtd"
   xmlns="http://www.w3.org/2000/svg"
   xmlns:svg="http://www.w3.org/2000/svg">
  <sodipodi:namedview
     id="namedview6"
     pagecolor="#ffffff"
     bordercolor="#000000"
     borderopacity="0.25"
     inkscape:showpageshadow="2"
     inkscape:pageopacity="0.0"
     inkscape:pagecheckerboard="0"
     inkscape:deskcolor="#d1d1d1"
     showgrid="false"
     inkscape:zoom="1.8833333"
     inkscape:cx="152.38938"
     inkscape:cy="209.46903"
     inkscape:window-width="1354"
     inkscape:window-height="736"
     inkscape:window-x="6"
     inkscape:window-y="26"
     inkscape:window-maximized="1"
     inkscape:current-layer="svg6" />
  <!---->
  <defs
     data-v-fde0c5aa=""
     id="defs1">
    <!---->
  </defs>
  <rect
     data-v-fde0c5aa=""
     fill="transparent"
     x="34.602139"
     y="97.555092"
     width="101.41846"
     height="103.49759"
     class="logo-background-square"
     id="rect1"
     style="stroke-width:0.341509;fill:#000000" />
  <defs
     data-v-fde0c5aa=""
     id="defs2">
    <!---->
  </defs>
  <g
     data-v-fde0c5aa=""
     id="e8f48adc-e956-4f67-be04-16f40b00e067"
     fill="#000000"
     transform="matrix(4.0635295,0,0,4.0635295,290.03118,56.661014)"
     style="fill:#f2f2f2">
    <path
       d="m 2.0374209,13.314123 v 0 0 q -0.15,-0.29 -0.23,-0.62 v 0 0 q -0.07,-0.33 -0.07,-0.7 v 0 0 q 0,-0.37 0.12,-0.97 v 0 0 q 0.13,-0.6 0.35,-1.2700003 v 0 0 q 0.22,-0.66 0.51,-1.36 v 0 0 q 0.29,-0.7 0.62,-1.36 v 0 0 q 0.67,-1.38 1.33,-2.39 v 0 h -0.08 v 0 q -0.81,0 -1.51,0.37 v 0 0 q -0.17,0.13 -0.32,0.13 v 0 0 q -0.33,0 -0.64,-0.32 v 0 0 q -0.71,-0.76 0.85,-1.25 v 0 0 q 0.73,-0.24 1.18,-0.24 v 0 0 q 0.44,0 0.72,0.14 v 0 0 q 0.27,0.14 0.46,0.33 v 0 0 q 0.3,0.3 0.43,0.6 v 0 0 q 0.13,0.29 0.13,0.51 v 0 0 q 0,0.23 -0.14,0.6 v 0 0 q -0.13,0.37 -0.34,0.8 v 0 l -0.46,0.9 v 0 q -0.25,0.47 -0.49,0.99 v 0 0 q -0.25,0.52 -0.49,1.04 v 0 0 q -0.25,0.52 -0.44,1.0100003 v 0 0 q -0.42,1.1 -0.42,1.87 v 0 0 q 0,0.46 0.09,0.76 v 0 0 q 0.3,-0.48 0.74,-1 v 0 l 0.95,-1.07 v 0 q 1.67,-1.7900003 2.17,-2.3800003 v 0 0 q 1.16,-1.37 1.79,-2.59 v 0 0 q 0.25,-0.48 0.25,-0.88 v 0 0 q 0,-0.73 -0.4,-1.1 v 0 0 q -0.15,-0.15 -0.04,-0.35 v 0 0 q 0.1,-0.21 0.21,-0.31 v 0 0 q 0.27,-0.24 0.6,-0.24 v 0 0 q 0.34,0 0.5700001,0.14 v 0 0 q 0.23,0.14 0.38,0.35 v 0 0 q 0.29,0.42 0.29,1.03 v 0 0 q 0,0.62 -0.26,1.31 v 0 0 q -0.26,0.69 -0.6900001,1.35 v 0 0 q -0.43,0.66 -0.97,1.28 v 0 0 q -0.55,0.62 -1.11,1.18 v 0 l -2.07,1.9500003 v 0 q -0.93,0.94 -1.25,1.29 v 0 0 q -0.6,0.67 -0.77,0.88 v 0 0 q -0.17,0.21 -0.31,0.26 v 0 0 q -0.14,0.04 -0.37,0.04 v 0 0 q -0.23,0 -0.47,-0.21 v 0 0 q -0.25,-0.2 -0.4,-0.5 z m 19.4000001,-0.73 v 0 0 q 0.18,0 0.18,0.24 v 0 0 q 0,0.25 -0.09,0.4 v 0 0 q -0.09,0.16 -0.21,0.29 v 0 0 q -0.11,0.13 -0.29,0.25 v 0 0 q -0.42,0.27 -0.88,0.27 v 0 0 q -0.46,0 -0.73,-0.11 v 0 0 q -0.27,-0.12 -0.47,-0.34 v 0 0 q -0.42,-0.47 -0.42,-1.31 v 0 0 q 0,-0.89 0.34,-2.17 v 0 0 q 0.34,-1.2800003 0.66,-2.1900003 v 0 0 q 0.32,-0.91 0.65,-1.74 v 0 l 0.62,-1.57 v 0 q -1.02,0.91 -2.57,3.82 v 0 l -1.65,3.1400003 v 0 q -1.33,2.47 -1.9,2.47 v 0 0 q -0.55,0 -0.75,-0.48 v 0 0 q -0.19,-0.46 -0.19,-1.55 v 0 0 q 0,-1.1 0.17,-2.1100003 v 0 0 q 0.18,-1.01 0.45,-1.97 v 0 0 q 0.46,-1.7 1.2,-3.38 v 0 0 q -0.72,0.41 -1.59,1.8 v 0 0 q -0.67,1.11 -0.95,1.63 v 0 l -1.76,3.2400003 v 0 q -1.1,2.01 -1.7700001,2.48 v 0 0 q -0.49,0.34 -1.05,0.34 v 0 0 q -0.48,0 -0.69,-0.3 v 0 0 q -0.08,-0.12 -0.08,-0.23 v 0 0 q 0,-0.1 0.06,-0.12 v 0 0 q 0.43,-0.12 0.6,-0.24 v 0 0 q 0.17,-0.13 0.35,-0.26 v 0 0 q 0.17,-0.13 0.49,-0.57 v 0 0 q 0.33,-0.43 0.72,-1.04 v 0 0 q 0.3800001,-0.62 0.7900001,-1.3800003 v 0 l 0.87,-1.6 v 0 q 1.21,-2.32 2.52,-3.72 v 0 0 q 0.46,-0.5 0.91,-0.77 v 0 0 q 0.46,-0.32 1.05,-0.43 v 0 0 q 0.16,-0.04 0.3,-0.04 v 0 0 q 0.14,0 0.32,0.04 v 0 0 q 0.17,0.04 0.3,0.13 v 0 0 q 0.3,0.21 0.18,0.55 v 0 0 q -0.05,0.2 -0.21,0.62 v 0 l -0.37,0.97 v 0 q -1.29,3.57 -1.41,6.5000003 v 0 0 q 0.36,-0.63 0.73,-1.36 v 0 l 0.77,-1.5300003 0.81,-1.55 v 0 q 1.88,-3.49 3.5,-3.99 v 0 0 q 0.33,-0.11 0.56,-0.11 v 0 0 q 0.22,0 0.35,0.06 v 0 0 q 0.13,0.05 0.23,0.14 v 0 0 q 0.24,0.22 0.17,0.45 v 0 0 q -0.08,0.23 -0.2,0.59 v 0 l -0.99,2.89 -0.36,1.13 v 0 q -0.58,1.9700003 -0.69,3.0200003 v 0 0 q -0.05,0.45 0.1,0.7 v 0 0 q 0.14,0.25 0.38,0.25 v 0 0 q 0.25,0 0.39,-0.04 v 0 0 q 0.14,-0.04 0.24,-0.09 v 0 l 0.18,-0.08 v 0 q 0.07,-0.04 0.13,-0.04 z m 5.84,0.12 v -0.29 0 q 0,-0.92 0.53,-2.8300003 v 0 0 q -1.65,0.04 -2.52,0.1 v 0 0 q -0.27,0.4800003 -0.49,0.9200003 v 0 l -0.42,0.84 v 0 q -0.84,1.65 -1.51,2.18 v 0 0 q -0.52,0.41 -1.09,0.41 v 0 0 q -0.44,0 -0.66,-0.29 v 0 0 q -0.09,-0.11 -0.1,-0.22 v 0 0 q -0.01,-0.1 0.05,-0.14 v 0 0 q 0.78,-0.29 1.28,-0.89 v 0 0 q 0.43,-0.54 0.86,-1.32 v 0 l 0.77,-1.3800003 -0.43,0.06 v 0 q -0.41,0.07 -0.41,-0.13 v 0 0 q 0,-0.21 0.25,-0.39 v 0 0 q 0.43,-0.32 0.84,-0.43 v 0 l 0.29,-0.07 v 0 q 1.12,-1.85 1.71,-2.59 v 0 0 q 0.59,-0.73 1.08,-1.23 v 0 0 q 0.49,-0.49 1.03,-0.86 v 0 0 q 1.18,-0.82 2.33,-0.82 v 0 0 q 0.35,0 0.47,0.15 v 0 0 q 0.21,0.22 0.13,0.48 v 0 0 q -0.07,0.25 -0.24,0.73 v 0 0 q -1.1,2.98 -1.33,3.69 v 0 0 q 0.11,0 0.19,0 v 0 h 0.15 v 0 q 0.77,0 0.82,0.15 v 0 0 q 0.02,0.05 0.02,0.17 v 0 0 q 0,0.13 -0.08,0.29 v 0 0 q -0.08,0.17 -0.26,0.28 v 0 0 q -0.36,0.25 -1.21,0.29 v 0 0 q -0.47,1.6100003 -0.53,2.2200003 v 0 0 q -0.07,0.62 0.04,0.83 v 0 0 q 0.1,0.22 0.3,0.22 v 0 0 q 0.19,0 0.32,-0.04 v 0 0 q 0.12,-0.04 0.22,-0.09 v 0 l 0.17,-0.08 v 0 q 0.07,-0.04 0.14,-0.04 v 0 0 q 0.07,0 0.12,0.09 v 0 0 q 0.05,0.1 0.05,0.25 v 0 0 q 0,0.15 -0.13,0.35 v 0 0 q -0.12,0.21 -0.33,0.38 v 0 0 q -0.48,0.38 -1.08,0.38 v 0 0 q -0.92,0 -1.23,-0.82 v 0 0 q -0.11,-0.29 -0.11,-0.51 z m -0.83,-5.0100003 -0.53,0.91 v 0 q 1.21,-0.16 2.25,-0.19 v 0 0 q 0.19,-0.59 0.41,-1.16 v 0 l 0.43,-1.09 v 0 q 0.21,-0.52 0.43,-0.99 v 0 l 0.39,-0.84 v 0 q -1.42,0.37 -2.81,2.45 v 0 0 q -0.29,0.44 -0.57,0.91 z"
       id="path2"
       style="fill:#f2f2f2" />
  </g>
  <defs
     data-v-fde0c5aa=""
     id="defs3">
    <linearGradient
       data-v-fde0c5aa=""
       gradientTransform="rotate(25)"
       id="e08eb569-60b0-4eb8-8412-cfcb879dfcf1"
       x1="0%"
       y1="0%"
       x2="100%"
       y2="0%">
      <stop
         data-v-fde0c5aa=""
         offset="0%"
         stop-color="#181B80"
         stop-opacity="1"
         id="stop2" />
      <stop
         data-v-fde0c5aa=""
         offset="100%"
         stop-color="#181ED9"
         stop-opacity="1"
         id="stop3" />
    </linearGradient>
  </defs>
  <g
     data-v-fde0c5aa=""
     id="2540dcb0-bd30-4496-8907-ea916f881088"
     stroke="none"
     fill="url(#e08eb569-60b0-4eb8-8412-cfcb879dfcf1)"
     transform="matrix(1.0343680381774902,0,0,1.0343680381774902,32.256170395970756,98.79257755071906)"
     style="fill:#cccccc">
    <path
       d="M34.571 16.321h5.716v5.716h-5.716zM34.571 28.368h5.716v5.716h-5.716zM34.571 40.416h5.716v5.716h-5.716zM34.571 52.464h5.716v5.716h-5.716zM80.349 16.321h5.716v5.716h-5.716zM80.349 28.368h5.716v5.716h-5.716zM80.349 40.416h5.716v5.716h-5.716zM80.349 52.464h5.716v5.716h-5.716zM52.324 50.356a1.12 1.12 0 0 1-1.118-1.117V26.271a1.117 1.117 0 0 1 1.702-.951l18.704 11.483c.332.203.532.563.532.951 0 .389-.201.749-.532.951L52.909 50.19a1.109 1.109 0 0 1-.585.166zm1.118-22.088v18.974l15.45-9.488-15.45-9.486z"
       id="path3"
       style="fill:#cccccc" />
    <path
       d="M81.978 8.301c4.025 0 7.3 3.275 7.3 7.3V59.3c0 4.025-3.275 7.3-7.3 7.3H38.279c-4.025 0-7.3-3.275-7.3-7.3V15.601c0-4.025 3.275-7.3 7.3-7.3h43.699m0-2.235H38.279a9.535 9.535 0 0 0-9.535 9.535V59.3a9.535 9.535 0 0 0 9.535 9.535h43.699a9.535 9.535 0 0 0 9.535-9.535V15.601c-.001-5.266-4.27-9.535-9.535-9.535z"
       id="path4"
       style="fill:#cccccc" />
    <path
       d="M74.63 71.069h-2.299l.225.924a7.487 7.487 0 0 1-.884 5.706 7.503 7.503 0 0 1-4.661 3.409l-38.573 9.386a7.502 7.502 0 0 1-5.706-.886 7.5 7.5 0 0 1-3.409-4.661L9.94 46.377a7.492 7.492 0 0 1 .886-5.706 7.5 7.5 0 0 1 4.661-3.409L26.51 34.58v-2.3l-11.551 2.809a9.724 9.724 0 0 0-6.043 4.419 9.72 9.72 0 0 0-1.148 7.396l9.386 38.57a9.707 9.707 0 0 0 4.417 6.043 9.725 9.725 0 0 0 5.065 1.429c.775 0 1.558-.094 2.331-.284l38.573-9.386a9.693 9.693 0 0 0 6.04-4.417 9.708 9.708 0 0 0 1.148-7.396l-.098-.394z"
       id="path5"
       style="fill:#cccccc" />
  </g>
  <defs
     data-v-fde0c5aa=""
     id="defs5">
    <!---->
  </defs>
</svg>
