<?xml version="1.0" encoding="UTF-8" standalone="no"?>
<svg
   data-v-fde0c5aa=""
   viewBox="0 0 90000 90000"
   class="iconLeftSlogan"
   version="1.1"
   id="svg6"
   sodipodi:docname="default.svg"
   width="90000"
   height="90000"
   xmlns:inkscape="http://www.inkscape.org/namespaces/inkscape"
   xmlns:sodipodi="http://sodipodi.sourceforge.net/DTD/sodipodi-0.dtd"
   xmlns:xlink="http://www.w3.org/1999/xlink"
   xmlns="http://www.w3.org/2000/svg"
   xmlns:svg="http://www.w3.org/2000/svg">
  <sodipodi:namedview
     id="namedview6"
     pagecolor="#ffffff"
     bordercolor="#000000"
     borderopacity="0.25"
     inkscape:showpageshadow="2"
     inkscape:pageopacity="0.0"
     inkscape:pagecheckerboard="0"
     inkscape:deskcolor="#d1d1d1"
     showgrid="false" />
  <!---->
  <defs
     data-v-fde0c5aa=""
     id="defs1">
    <!---->
    <linearGradient
       inkscape:collect="always"
       xlink:href="#e08eb569-60b0-4eb8-8412-cfcb879dfcf1"
       id="linearGradient1"
       gradientTransform="scale(1.1091337,0.90160458)"
       x1="31.169373"
       y1="18.102171"
       x2="77.596596"
       y2="18.102171"
       gradientUnits="userSpaceOnUse" />
    <linearGradient
       inkscape:collect="always"
       xlink:href="#e08eb569-60b0-4eb8-8412-cfcb879dfcf1"
       id="linearGradient2"
       x1="28.743999"
       y1="6.066"
       x2="91.513"
       y2="6.066"
       gradientUnits="userSpaceOnUse" />
    <linearGradient
       inkscape:collect="always"
       xlink:href="#e08eb569-60b0-4eb8-8412-cfcb879dfcf1"
       id="linearGradient3"
       gradientTransform="scale(1.0550074,0.94786064)"
       x1="7.0962186"
       y1="34.055637"
       x2="71.099297"
       y2="34.055637"
       gradientUnits="userSpaceOnUse" />
    <linearGradient
       inkscape:collect="always"
       xlink:href="#e08eb569-60b0-4eb8-8412-cfcb879dfcf1"
       id="linearGradient4"
       gradientTransform="scale(0.98344045,1.0168384)"
       x1="7.6126251"
       y1="5.9655499"
       x2="93.053932"
       y2="5.9655499"
       gradientUnits="userSpaceOnUse" />
  </defs>
  <rect
     data-v-fde0c5aa=""
     fill="transparent"
     x="0"
     y="0"
     width="300"
     height="300"
     class="logo-background-square"
     id="rect1" />
  <defs
     data-v-fde0c5aa=""
     id="defs2">
    <!---->
  </defs>
  <g
     data-v-fde0c5aa=""
     id="e8f48adc-e956-4f67-be04-16f40b00e067"
     fill="#000000"
     transform="matrix(4.0635295,0,0,4.0635295,136.62283,106.65874)"
     style="fill:#ececec">
    <path
       d="m 1.11,13.02 v 0 0 Q 0.96,12.73 0.88,12.4 v 0 0 Q 0.81,12.07 0.81,11.7 v 0 0 q 0,-0.37 0.12,-0.97 v 0 0 q 0.13,-0.6 0.35,-1.27 v 0 0 Q 1.5,8.8 1.79,8.1 v 0 0 Q 2.08,7.4 2.41,6.74 v 0 0 Q 3.08,5.36 3.74,4.35 v 0 H 3.66 v 0 q -0.81,0 -1.51,0.37 v 0 0 Q 1.98,4.85 1.83,4.85 v 0 0 Q 1.5,4.85 1.19,4.53 v 0 0 Q 0.48,3.77 2.04,3.28 v 0 0 Q 2.77,3.04 3.22,3.04 v 0 0 q 0.44,0 0.72,0.14 v 0 0 Q 4.21,3.32 4.4,3.51 v 0 0 q 0.3,0.3 0.43,0.6 v 0 0 Q 4.96,4.4 4.96,4.62 v 0 0 q 0,0.23 -0.14,0.6 v 0 0 Q 4.69,5.59 4.48,6.02 v 0 l -0.46,0.9 v 0 Q 3.77,7.39 3.53,7.91 v 0 0 Q 3.28,8.43 3.04,8.95 v 0 0 Q 2.79,9.47 2.6,9.96 v 0 0 q -0.42,1.1 -0.42,1.87 v 0 0 q 0,0.46 0.09,0.76 v 0 0 q 0.3,-0.48 0.74,-1 v 0 l 0.95,-1.07 v 0 Q 5.63,8.73 6.13,8.14 v 0 0 Q 7.29,6.77 7.92,5.55 v 0 0 Q 8.17,5.07 8.17,4.67 v 0 0 q 0,-0.73 -0.4,-1.1 v 0 0 Q 7.62,3.42 7.73,3.22 v 0 0 Q 7.83,3.01 7.94,2.91 v 0 0 Q 8.21,2.67 8.54,2.67 v 0 0 q 0.34,0 0.57,0.14 v 0 0 q 0.23,0.14 0.38,0.35 v 0 0 q 0.29,0.42 0.29,1.03 v 0 0 q 0,0.62 -0.26,1.31 v 0 0 Q 9.26,6.19 8.83,6.85 v 0 0 Q 8.4,7.51 7.86,8.13 v 0 0 Q 7.31,8.75 6.75,9.31 v 0 l -2.07,1.95 v 0 Q 3.75,12.2 3.43,12.55 v 0 0 q -0.6,0.67 -0.77,0.88 v 0 0 q -0.17,0.21 -0.31,0.26 v 0 0 q -0.14,0.04 -0.37,0.04 v 0 0 q -0.23,0 -0.47,-0.21 v 0 0 q -0.25,-0.2 -0.4,-0.5 z m 19.4,-0.73 v 0 0 q 0.18,0 0.18,0.24 v 0 0 q 0,0.25 -0.09,0.4 v 0 0 q -0.09,0.16 -0.21,0.29 v 0 0 q -0.11,0.13 -0.29,0.25 v 0 0 q -0.42,0.27 -0.88,0.27 v 0 0 q -0.46,0 -0.73,-0.11 v 0 0 q -0.27,-0.12 -0.47,-0.34 v 0 0 Q 17.6,12.82 17.6,11.98 v 0 0 q 0,-0.89 0.34,-2.17 v 0 0 Q 18.28,8.53 18.6,7.62 v 0 0 q 0.32,-0.91 0.65,-1.74 v 0 l 0.62,-1.57 v 0 Q 18.85,5.22 17.3,8.13 v 0 l -1.65,3.14 v 0 q -1.33,2.47 -1.9,2.47 v 0 0 q -0.55,0 -0.75,-0.48 v 0 0 Q 12.81,12.8 12.81,11.71 v 0 0 q 0,-1.1 0.17,-2.11 v 0 0 q 0.18,-1.01 0.45,-1.97 v 0 0 q 0.46,-1.7 1.2,-3.38 v 0 0 q -0.72,0.41 -1.59,1.8 v 0 0 q -0.67,1.11 -0.95,1.63 v 0 l -1.76,3.24 v 0 q -1.1,2.01 -1.77,2.48 v 0 0 q -0.49,0.34 -1.05,0.34 v 0 0 q -0.48,0 -0.69,-0.3 v 0 0 Q 6.74,13.32 6.74,13.21 v 0 0 q 0,-0.1 0.06,-0.12 v 0 0 q 0.43,-0.12 0.6,-0.24 v 0 0 q 0.17,-0.13 0.35,-0.26 v 0 0 q 0.17,-0.13 0.49,-0.57 v 0 0 q 0.33,-0.43 0.72,-1.04 v 0 0 Q 9.34,10.36 9.75,9.6 v 0 L 10.62,8 v 0 q 1.21,-2.32 2.52,-3.72 v 0 0 q 0.46,-0.5 0.91,-0.77 v 0 0 Q 14.51,3.19 15.1,3.08 v 0 0 q 0.16,-0.04 0.3,-0.04 v 0 0 q 0.14,0 0.32,0.04 v 0 0 q 0.17,0.04 0.3,0.13 v 0 0 q 0.3,0.21 0.18,0.55 v 0 0 q -0.05,0.2 -0.21,0.62 v 0 l -0.37,0.97 v 0 q -1.29,3.57 -1.41,6.5 v 0 0 q 0.36,-0.63 0.73,-1.36 v 0 l 0.77,-1.53 0.81,-1.55 v 0 q 1.88,-3.49 3.5,-3.99 v 0 0 q 0.33,-0.11 0.56,-0.11 v 0 0 q 0.22,0 0.35,0.06 v 0 0 q 0.13,0.05 0.23,0.14 v 0 0 q 0.24,0.22 0.17,0.45 v 0 0 q -0.08,0.23 -0.2,0.59 v 0 l -0.99,2.89 -0.36,1.13 v 0 q -0.58,1.97 -0.69,3.02 v 0 0 q -0.05,0.45 0.1,0.7 v 0 0 q 0.14,0.25 0.38,0.25 v 0 0 q 0.25,0 0.39,-0.04 v 0 0 q 0.14,-0.04 0.24,-0.09 v 0 l 0.18,-0.08 v 0 q 0.07,-0.04 0.13,-0.04 z m 5.84,0.12 v -0.29 0 q 0,-0.92 0.53,-2.83 v 0 0 q -1.65,0.04 -2.52,0.1 v 0 0 q -0.27,0.48 -0.49,0.92 v 0 l -0.42,0.84 v 0 q -0.84,1.65 -1.51,2.18 v 0 0 q -0.52,0.41 -1.09,0.41 v 0 0 q -0.44,0 -0.66,-0.29 v 0 0 q -0.09,-0.11 -0.1,-0.22 v 0 0 q -0.01,-0.1 0.05,-0.14 v 0 0 q 0.78,-0.29 1.28,-0.89 v 0 0 q 0.43,-0.54 0.86,-1.32 v 0 L 23.05,9.5 22.62,9.56 v 0 Q 22.21,9.63 22.21,9.43 v 0 0 q 0,-0.21 0.25,-0.39 v 0 0 Q 22.89,8.72 23.3,8.61 v 0 l 0.29,-0.07 v 0 Q 24.71,6.69 25.3,5.95 v 0 0 q 0.59,-0.73 1.08,-1.23 v 0 0 q 0.49,-0.49 1.03,-0.86 v 0 0 q 1.18,-0.82 2.33,-0.82 v 0 0 q 0.35,0 0.47,0.15 v 0 0 q 0.21,0.22 0.13,0.48 v 0 0 Q 30.27,3.92 30.1,4.4 v 0 0 Q 29,7.38 28.77,8.09 v 0 0 q 0.11,0 0.19,0 v 0 h 0.15 v 0 q 0.77,0 0.82,0.15 v 0 0 q 0.02,0.05 0.02,0.17 v 0 0 q 0,0.13 -0.08,0.29 v 0 0 q -0.08,0.17 -0.26,0.28 v 0 0 Q 29.25,9.23 28.4,9.27 v 0 0 q -0.47,1.61 -0.53,2.22 v 0 0 q -0.07,0.62 0.04,0.83 v 0 0 q 0.1,0.22 0.3,0.22 v 0 0 q 0.19,0 0.32,-0.04 v 0 0 q 0.12,-0.04 0.22,-0.09 v 0 l 0.17,-0.08 v 0 q 0.07,-0.04 0.14,-0.04 v 0 0 q 0.07,0 0.12,0.09 v 0 0 q 0.05,0.1 0.05,0.25 v 0 0 q 0,0.15 -0.13,0.35 v 0 0 q -0.12,0.21 -0.33,0.38 v 0 0 q -0.48,0.38 -1.08,0.38 v 0 0 q -0.92,0 -1.23,-0.82 v 0 0 Q 26.35,12.63 26.35,12.41 Z M 25.52,7.4 24.99,8.31 v 0 Q 26.2,8.15 27.24,8.12 v 0 0 q 0.19,-0.59 0.41,-1.16 v 0 l 0.43,-1.09 v 0 q 0.21,-0.52 0.43,-0.99 v 0 L 28.9,4.04 v 0 q -1.42,0.37 -2.81,2.45 v 0 0 Q 25.8,6.93 25.52,7.4 Z"
       id="path2"
       style="fill:#ececec" />
  </g>
  <defs
     data-v-fde0c5aa=""
     id="defs3">
    <linearGradient
       data-v-fde0c5aa=""
       gradientTransform="rotate(25)"
       id="e08eb569-60b0-4eb8-8412-cfcb879dfcf1"
       x1="0"
       y1="0"
       x2="1"
       y2="0">
      <stop
         data-v-fde0c5aa=""
         offset="0%"
         stop-color="#181B80"
         stop-opacity="1"
         id="stop2" />
      <stop
         data-v-fde0c5aa=""
         offset="100%"
         stop-color="#181ED9"
         stop-opacity="1"
         id="stop3" />
    </linearGradient>
  </defs>
  <g
     data-v-fde0c5aa=""
     id="2540dcb0-bd30-4496-8907-ea916f881088"
     stroke="none"
     fill="url(#e08eb569-60b0-4eb8-8412-cfcb879dfcf1)"
     transform="matrix(1.034368,0,0,1.034368,32.25617,98.792578)"
     style="fill:url(#linearGradient4)">
    <path
       d="m 34.571,16.321 h 5.716 v 5.716 h -5.716 z m 0,12.047 h 5.716 v 5.716 h -5.716 z m 0,12.048 h 5.716 v 5.716 h -5.716 z m 0,12.048 h 5.716 V 58.18 H 34.571 Z M 80.349,16.321 h 5.716 v 5.716 h -5.716 z m 0,12.047 h 5.716 v 5.716 h -5.716 z m 0,12.048 h 5.716 v 5.716 h -5.716 z m 0,12.048 h 5.716 V 58.18 H 80.349 Z M 52.324,50.356 A 1.12,1.12 0 0 1 51.206,49.239 V 26.271 a 1.117,1.117 0 0 1 1.702,-0.951 l 18.704,11.483 c 0.332,0.203 0.532,0.563 0.532,0.951 0,0.389 -0.201,0.749 -0.532,0.951 L 52.909,50.19 a 1.109,1.109 0 0 1 -0.585,0.166 z m 1.118,-22.088 v 18.974 l 15.45,-9.488 z"
       id="path3"
       style="fill:url(#linearGradient1)" />
    <path
       d="m 81.978,8.301 c 4.025,0 7.3,3.275 7.3,7.3 V 59.3 c 0,4.025 -3.275,7.3 -7.3,7.3 H 38.279 c -4.025,0 -7.3,-3.275 -7.3,-7.3 V 15.601 c 0,-4.025 3.275,-7.3 7.3,-7.3 h 43.699 m 0,-2.235 H 38.279 a 9.535,9.535 0 0 0 -9.535,9.535 V 59.3 a 9.535,9.535 0 0 0 9.535,9.535 H 81.978 A 9.535,9.535 0 0 0 91.513,59.3 V 15.601 C 91.512,10.335 87.243,6.066 81.978,6.066 Z"
       id="path4"
       style="fill:url(#linearGradient2)" />
    <path
       d="m 74.63,71.069 h -2.299 l 0.225,0.924 a 7.487,7.487 0 0 1 -0.884,5.706 7.503,7.503 0 0 1 -4.661,3.409 L 28.438,90.494 A 7.502,7.502 0 0 1 22.732,89.608 7.5,7.5 0 0 1 19.323,84.947 L 9.94,46.377 a 7.492,7.492 0 0 1 0.886,-5.706 7.5,7.5 0 0 1 4.661,-3.409 L 26.51,34.58 v -2.3 l -11.551,2.809 a 9.724,9.724 0 0 0 -6.043,4.419 9.72,9.72 0 0 0 -1.148,7.396 l 9.386,38.57 a 9.707,9.707 0 0 0 4.417,6.043 9.725,9.725 0 0 0 5.065,1.429 c 0.775,0 1.558,-0.094 2.331,-0.284 L 67.54,83.276 a 9.693,9.693 0 0 0 6.04,-4.417 9.708,9.708 0 0 0 1.148,-7.396 z"
       id="path5"
       style="fill:url(#linearGradient3)" />
  </g>
  <defs
     data-v-fde0c5aa=""
     id="defs5">
    <!---->
  </defs>
  <g
     data-v-fde0c5aa=""
     id="92453d50-f1f9-4cdf-9959-6927ef4556f1"
     fill="#000000"
     transform="matrix(0.4251574,0,0,0.4251574,139.808,171.25868)"
     style="fill:#f9f9f9">
    <path
       d="m 0.25,5.01 c 0,0.16 0.18,0.16 0.31,0.16 0.15,0 0.2,-0.02 0.21,-0.2 L 0.88,3.89 C 0.9,3.81 1.44,3.75 2.2,3.75 h 1.99 c 0.05,0 0.08,0.6 0.08,1.22 0,1.46 -0.06,7.21 -0.18,7.21 H 3.22 c -0.22,0 -0.27,0.01 -0.27,0.21 0,0.24 0.02,0.29 0.21,0.29 0.33,0 1.31,-0.04 1.73,-0.04 0.42,0 1.35,0.04 1.68,0.04 0.16,0 0.19,-0.07 0.19,-0.28 0,-0.16 -0.03,-0.22 -0.19,-0.22 h -1 C 5.54,12.18 5.54,11.76 5.54,11.31 5.54,9.56 5.63,5.96 5.63,5.92 5.64,5.18 5.64,3.75 5.74,3.75 h 1.61 c 0.71,0 1.54,0.03 1.54,0.1 0,0.14 -0.04,1.05 -0.04,1.12 0,0.15 0.07,0.2 0.25,0.2 0.2,0 0.27,0 0.27,-0.14 0,-1.1 0.05,-1.63 0.05,-1.89 0,-0.2 -0.08,-0.2 -0.28,-0.2 -0.15,0 -0.21,0.04 -0.22,0.22 0,0.07 -0.65,0.12 -1.49,0.12 H 2.44 c -0.66,0 -1.47,0 -1.47,-0.07 V 3.07 C 0.97,2.94 0.84,2.94 0.74,2.94 0.52,2.94 0.49,3 0.48,3.19 0.42,3.89 0.25,4.97 0.25,5.01 Z m 16.93,7.38 c 0,0.24 0,0.29 0.19,0.29 0.33,0 1.26,-0.04 1.68,-0.04 0.42,0 1.25,0.04 1.57,0.04 0.17,0 0.17,-0.07 0.17,-0.28 0,-0.16 0,-0.22 -0.17,-0.22 H 19.7 c -0.09,0 -0.13,-2.25 -0.13,-3.98 0,-0.19 0,-0.19 0.13,-0.19 h 5.23 c 0.07,0 0.09,0 0.09,0.17 v 1.73 c 0,1.14 -0.02,2.27 -0.07,2.27 h -0.77 c -0.23,0 -0.27,0.01 -0.27,0.21 0,0.24 0.02,0.29 0.21,0.29 0.32,0 1.16,-0.04 1.58,-0.04 0.42,0 1.01,0.04 1.33,0.04 0.17,0 0.19,-0.07 0.19,-0.28 0,-0.16 -0.02,-0.22 -0.19,-0.22 h -0.74 c -0.04,0 -0.05,-2.91 -0.05,-5.14 0,-1.64 0,-3.34 0.04,-3.34 h 0.61 c 0.23,0 0.27,-0.02 0.27,-0.21 0,-0.24 -0.01,-0.3 -0.21,-0.3 -0.14,0 -0.77,0.04 -1.36,0.04 -0.67,0 -1.27,-0.04 -1.5,-0.04 -0.19,0 -0.22,0.03 -0.22,0.25 0,0.23 0.07,0.26 0.24,0.26 h 0.8 c 0.05,0 0.11,1.09 0.11,2.01 v 1.71 c 0,0.17 0,0.17 -0.17,0.17 h -5.11 c -0.17,0 -0.17,0 -0.17,-0.21 0,-0.42 -0.01,-1.15 -0.01,-1.85 0,-0.87 0.01,-1.83 0.07,-1.83 h 0.77 c 0.22,0 0.26,-0.02 0.26,-0.21 0,-0.24 -0.01,-0.3 -0.21,-0.3 -0.32,0 -0.91,0.04 -1.51,0.04 -0.59,0 -1.08,-0.04 -1.3,-0.04 -0.18,0 -0.28,0.02 -0.28,0.25 0,0.24 0.11,0.26 0.28,0.26 h 0.62 c 0.05,0 0.07,1.89 0.07,3.48 v 1.43 c 0,1.47 -0.02,3.57 -0.09,3.57 h -0.81 c -0.22,0 -0.25,0.01 -0.25,0.21 z m 18.07,0 c 0,0.24 0.03,0.29 0.23,0.29 0.32,0 1.28,-0.04 1.7,-0.04 0.42,0 4.93,0.04 5.25,0.04 0.13,0 0.28,-0.02 0.28,-0.19 0,-0.42 0.05,-1.26 0.05,-1.96 0,-0.14 -0.16,-0.14 -0.28,-0.14 -0.12,0 -0.24,0 -0.24,0.12 -0.02,0.55 -0.02,0.9 -0.04,1.25 -0.03,0.25 -0.03,0.28 -0.13,0.28 -0.15,0 -2.79,0.04 -4.28,0.04 -0.07,0 -0.12,-1.97 -0.16,-3.82 0,-0.2 0.04,-0.17 0.18,-0.17 h 2.29 c 0.7,0 0.72,0.11 0.72,0.21 V 9 c 0,0.14 0.19,0.14 0.3,0.14 0.1,0 0.22,-0.01 0.22,-0.12 0,-0.19 -0.03,-0.69 -0.03,-1.19 0,-0.51 0.03,-1 0.03,-1.12 0,-0.12 -0.14,-0.13 -0.24,-0.13 -0.11,0 -0.28,0.01 -0.28,0.14 v 0.73 c 0,0.17 -0.44,0.18 -0.72,0.18 h -2.34 c -0.11,0 -0.13,0 -0.13,-0.18 -0.01,-0.7 -0.03,-1.39 -0.03,-1.99 0,-0.34 0,-1.75 0.09,-1.75 1.23,0 3.74,0.04 3.74,0.1 0,0.18 -0.05,1.02 -0.05,1.08 0,0.15 0.07,0.21 0.26,0.21 0.19,0 0.26,-0.02 0.26,-0.16 0,-1.09 0.06,-1.58 0.06,-1.85 0,-0.18 -0.09,-0.19 -0.28,-0.19 -0.2,0 -0.2,0.05 -0.23,0.21 -0.01,0.14 0.06,0.14 -0.85,0.14 -0.62,0 -2.76,0.04 -3.53,0.04 -0.49,0 -1.43,-0.04 -1.52,-0.04 -0.13,0 -0.19,0.05 -0.19,0.24 0,0.23 0.07,0.25 0.24,0.25 h 0.66 c 0.06,0 0.13,1.05 0.13,1.97 0,0.09 0.05,2.56 0.05,4.12 v 1.34 c 0,0.67 -0.03,1.01 -0.05,1.01 h -0.86 c -0.22,0 -0.28,0.03 -0.28,0.21 z m 25.27,0 c 0,0.24 0.02,0.29 0.21,0.29 0.18,0 0.56,-0.04 1.18,-0.04 0.63,0 1.19,0.04 1.51,0.04 0.17,0 0.17,-0.07 0.17,-0.28 0,-0.16 0,-0.22 -0.17,-0.22 h -1.2 c -0.05,0 -0.06,-0.64 -0.06,-1.39 0,-1.33 0.01,-3.31 0.01,-4.8 0,-0.74 0,-1.15 0.02,-1.71 0,-0.26 0.07,-0.14 0.19,0 l 6.89,8.38 c 0.09,0.09 0.17,0.23 0.28,0.23 0.11,0 0.18,-0.12 0.18,-0.35 0,-0.15 0.17,-5.89 0.19,-8.06 0,-0.42 0.02,-0.78 0.05,-0.78 h 0.63 c 0.23,0 0.28,-0.02 0.28,-0.21 0,-0.24 0,-0.3 -0.19,-0.3 -0.2,0 -0.63,0.04 -1.19,0.04 -0.62,0 -1.42,-0.04 -1.52,-0.04 -0.16,0 -0.16,0.07 -0.16,0.28 0,0.17 0,0.23 0.16,0.23 h 1.31 c 0.01,0 0.01,0.63 0.01,0.74 0,1.41 0.03,3.89 0.03,5.26 v 0.59 c 0,0.28 -0.02,0.36 -0.24,0.08 L 63.41,3.39 c -0.12,-0.14 -0.14,-0.2 -0.31,-0.2 -0.09,0 -0.46,0.04 -0.77,0.04 -0.3,0 -1.37,-0.04 -1.57,-0.04 -0.17,0 -0.2,0.07 -0.2,0.28 0,0.17 0.03,0.23 0.2,0.23 h 0.91 c 0,0.47 -0.04,4.83 -0.11,7.09 -0.03,0.9 -0.02,1.39 -0.13,1.39 h -0.64 c -0.23,0 -0.27,0.01 -0.27,0.21 z m 18.4,0 c 0,0.24 0.03,0.29 0.22,0.29 0.32,0 1.29,-0.04 1.71,-0.04 0.42,0 4.93,0.04 5.25,0.04 0.13,0 0.28,-0.02 0.28,-0.19 0,-0.42 0.04,-1.26 0.04,-1.96 0,-0.14 -0.15,-0.14 -0.28,-0.14 -0.11,0 -0.24,0 -0.24,0.12 -0.01,0.55 -0.01,0.9 -0.04,1.25 -0.03,0.25 -0.03,0.28 -0.12,0.28 -0.16,0 -2.79,0.04 -4.29,0.04 -0.07,0 -0.11,-1.97 -0.15,-3.82 0,-0.2 0.04,-0.17 0.18,-0.17 h 2.28 c 0.7,0 0.73,0.11 0.73,0.21 V 9 c 0,0.14 0.18,0.14 0.29,0.14 0.1,0 0.23,-0.01 0.23,-0.12 0,-0.19 -0.03,-0.69 -0.03,-1.19 0,-0.51 0.03,-1 0.03,-1.12 0,-0.12 -0.14,-0.13 -0.24,-0.13 -0.11,0 -0.28,0.01 -0.28,0.14 v 0.73 c 0,0.17 -0.45,0.18 -0.73,0.18 h -2.34 c -0.11,0 -0.12,0 -0.12,-0.18 -0.02,-0.7 -0.03,-1.39 -0.03,-1.99 0,-0.34 0,-1.75 0.08,-1.75 1.24,0 3.74,0.04 3.74,0.1 0,0.18 -0.04,1.02 -0.04,1.08 0,0.15 0.07,0.21 0.25,0.21 0.2,0 0.27,-0.02 0.27,-0.16 0,-1.09 0.05,-1.58 0.05,-1.85 0,-0.18 -0.08,-0.19 -0.28,-0.19 -0.19,0 -0.19,0.05 -0.22,0.21 -0.01,0.14 0.06,0.14 -0.85,0.14 -0.62,0 -2.76,0.04 -3.53,0.04 -0.49,0 -1.43,-0.04 -1.53,-0.04 -0.12,0 -0.18,0.05 -0.18,0.24 0,0.23 0.07,0.25 0.24,0.25 h 0.66 c 0.05,0 0.12,1.05 0.12,1.97 0,0.09 0.06,2.56 0.06,4.12 v 1.34 c 0,0.67 -0.03,1.01 -0.06,1.01 H 79.2 c -0.23,0 -0.28,0.03 -0.28,0.21 z m 15.05,0.04 c 0,0.23 0.08,0.25 0.26,0.25 0.23,0 0.75,-0.04 1.17,-0.04 0.42,0 0.84,0.04 1.16,0.04 0.19,0 0.24,-0.05 0.24,-0.29 0,-0.2 -0.07,-0.21 -0.3,-0.21 h -0.77 c -0.17,0 -0.1,-0.07 0.03,-0.28 0.53,-0.87 1.88,-2.81 2.28,-3.39 0.04,-0.07 0.07,-0.05 0.11,0.02 0.54,0.89 1.67,2.77 2.03,3.5 0.07,0.11 0.06,0.15 -0.07,0.15 h -0.7 c -0.22,0 -0.29,0.01 -0.29,0.21 0,0.24 0.04,0.29 0.24,0.29 0.32,0 1.2,-0.04 1.62,-0.04 0.42,0 1.23,0.04 1.46,0.04 0.22,0 0.26,-0.01 0.26,-0.25 0,-0.24 -0.02,-0.25 -0.29,-0.25 h -0.48 c -0.08,0 -2.53,-3.86 -2.96,-4.55 -0.03,-0.04 -0.05,-0.1 0,-0.15 0.28,-0.42 1.28,-1.7 2.11,-2.89 0.31,-0.45 0.62,-0.82 0.66,-0.82 h 0.32 c 0.17,0 0.27,-0.02 0.27,-0.26 0,-0.22 -0.09,-0.25 -0.27,-0.25 -0.22,0 -0.64,0.04 -1.06,0.04 -0.51,0 -0.87,-0.04 -1.1,-0.04 -0.19,0 -0.23,0.06 -0.23,0.3 0,0.19 0.07,0.21 0.29,0.21 h 0.78 v 0.01 c 0,0.21 -0.42,0.9 -0.88,1.58 -0.12,0.2 -0.88,1.36 -1.15,1.74 -0.02,0.04 -0.04,0.05 -0.05,0.05 -0.03,0 -0.09,-0.11 -0.13,-0.16 C 98.07,6.17 97.19,4.61 96.91,3.92 96.87,3.81 96.81,3.77 96.98,3.77 h 0.57 c 0.23,0 0.3,-0.02 0.3,-0.21 0,-0.24 -0.02,-0.3 -0.21,-0.3 -0.33,0 -0.97,0.04 -1.39,0.04 -0.42,0 -1.44,-0.04 -1.67,-0.04 -0.18,0 -0.26,0.02 -0.26,0.25 0,0.24 0.11,0.26 0.28,0.26 h 0.54 c 0.09,0 2.41,3.79 2.62,4.14 0.07,0.1 0.09,0.14 0.02,0.24 -0.68,0.87 -1.4,1.73 -2.02,2.64 -0.5,0.73 -0.94,1.39 -1.01,1.39 h -0.52 c -0.16,0 -0.26,0.01 -0.26,0.25 z m 16.08,-7.42 c 0,0.16 0.19,0.16 0.31,0.16 0.16,0 0.2,-0.02 0.21,-0.2 l 0.11,-1.08 C 110.7,3.81 111.24,3.75 112,3.75 h 1.99 c 0.05,0 0.08,0.6 0.08,1.22 0,1.46 -0.05,7.21 -0.18,7.21 h -0.87 c -0.22,0 -0.26,0.01 -0.26,0.21 0,0.24 0.01,0.29 0.21,0.29 0.32,0 1.3,-0.04 1.72,-0.04 0.42,0 1.36,0.04 1.68,0.04 0.17,0 0.19,-0.07 0.19,-0.28 0,-0.16 -0.02,-0.22 -0.19,-0.22 h -1 c -0.02,0 -0.02,-0.42 -0.02,-0.87 0,-1.75 0.08,-5.35 0.08,-5.39 0.01,-0.74 0.01,-2.17 0.11,-2.17 h 1.61 c 0.72,0 1.54,0.03 1.54,0.1 0,0.14 -0.04,1.05 -0.04,1.12 0,0.15 0.07,0.2 0.25,0.2 0.2,0 0.27,0 0.27,-0.14 0,-1.1 0.05,-1.63 0.05,-1.89 0,-0.2 -0.08,-0.2 -0.28,-0.2 -0.15,0 -0.21,0.04 -0.22,0.22 0,0.07 -0.64,0.12 -1.48,0.12 h -5 c -0.66,0 -1.47,0 -1.47,-0.07 V 3.07 c 0,-0.13 -0.13,-0.13 -0.23,-0.13 -0.22,0 -0.25,0.06 -0.26,0.25 -0.06,0.7 -0.23,1.78 -0.23,1.82 z m 26.73,-1.5 c 0,0.24 0.08,0.28 0.25,0.28 l 0.86,-0.02 c 0.05,0 0.11,1.75 0.11,3.34 v 4.52 c 0,0.3 -0.02,0.55 -0.04,0.55 h -0.73 c -0.23,0 -0.3,0.01 -0.3,0.21 0,0.24 0.03,0.29 0.23,0.29 0.12,0 1.08,-0.04 1.5,-0.04 0.18,0 0.7,0.03 1.34,0.03 1.55,0 3.96,-0.24 3.96,-2.44 0,-1.96 -1.82,-2.29 -2.5,-2.39 -0.09,-0.01 -0.1,-0.01 -0.1,-0.03 0,-0.01 0.04,-0.03 0.11,-0.05 0.64,-0.24 2.09,-0.86 2.09,-2.22 0,-1.73 -1.47,-2.29 -3.15,-2.29 -0.58,0 -1.18,0.04 -1.73,0.04 -0.42,0 -1.42,-0.03 -1.65,-0.03 -0.18,0 -0.25,0.02 -0.25,0.25 z m 2.45,4.68 c 0,-0.07 0,-0.11 0.11,-0.11 h 0.48 c 0.61,0 1.26,0.01 1.64,0.14 0.86,0.29 1.19,0.94 1.19,1.92 0,1.03 -0.47,2.04 -2.48,2.04 h -0.84 c -0.09,0 -0.1,-3.16 -0.1,-3.99 z m 0,-0.6 V 6.92 c 0,-1.05 0.01,-3.21 0.06,-3.24 0.05,-0.03 0.36,-0.05 0.57,-0.05 1.41,0 2.44,0.78 2.44,2.14 0,1.15 -0.73,1.69 -1.36,1.89 -0.09,0.03 -0.18,0.04 -0.27,0.04 -0.08,0 -0.22,-0.01 -0.46,-0.01 h -0.8 c -0.18,0 -0.18,-0.02 -0.18,-0.1 z m 12.84,4.8 c 0,0.24 0.03,0.29 0.22,0.29 0.32,0 1.29,-0.04 1.71,-0.04 0.42,0 4.93,0.04 5.25,0.04 0.13,0 0.28,-0.02 0.28,-0.19 0,-0.42 0.04,-1.26 0.04,-1.96 0,-0.14 -0.15,-0.14 -0.28,-0.14 -0.11,0 -0.24,0 -0.24,0.12 -0.01,0.55 -0.01,0.9 -0.04,1.25 -0.03,0.25 -0.03,0.28 -0.12,0.28 -0.16,0 -2.79,0.04 -4.29,0.04 -0.07,0 -0.11,-1.97 -0.15,-3.82 0,-0.2 0.04,-0.17 0.18,-0.17 h 2.28 c 0.7,0 0.73,0.11 0.73,0.21 V 9 c 0,0.14 0.18,0.14 0.29,0.14 0.1,0 0.23,-0.01 0.23,-0.12 0,-0.19 -0.03,-0.69 -0.03,-1.19 0,-0.51 0.03,-1 0.03,-1.12 0,-0.12 -0.14,-0.13 -0.24,-0.13 -0.11,0 -0.28,0.01 -0.28,0.14 v 0.73 c 0,0.17 -0.45,0.18 -0.73,0.18 h -2.34 c -0.11,0 -0.12,0 -0.12,-0.18 -0.02,-0.7 -0.03,-1.39 -0.03,-1.99 0,-0.34 0,-1.75 0.08,-1.75 1.24,0 3.74,0.04 3.74,0.1 0,0.18 -0.04,1.02 -0.04,1.08 0,0.15 0.07,0.21 0.25,0.21 0.2,0 0.27,-0.02 0.27,-0.16 0,-1.09 0.05,-1.58 0.05,-1.85 0,-0.18 -0.08,-0.19 -0.28,-0.19 -0.19,0 -0.19,0.05 -0.22,0.21 -0.01,0.14 0.06,0.14 -0.85,0.14 -0.62,0 -2.76,0.04 -3.53,0.04 -0.49,0 -1.43,-0.04 -1.53,-0.04 -0.12,0 -0.18,0.05 -0.18,0.24 0,0.23 0.07,0.25 0.24,0.25 h 0.66 c 0.05,0 0.12,1.05 0.12,1.97 0,0.09 0.06,2.56 0.06,4.12 v 1.34 c 0,0.67 -0.03,1.01 -0.06,1.01 h -0.85 c -0.23,0 -0.28,0.03 -0.28,0.21 z m 15.68,-6.62 c 0,3.3 4.98,2.43 4.98,4.88 0,0.94 -0.84,1.66 -1.82,1.66 -0.82,0 -2.42,-0.48 -2.45,-0.84 l -0.08,-1.32 c -0.02,-0.18 -0.09,-0.24 -0.27,-0.24 h -0.07 c -0.21,0 -0.21,0.09 -0.21,0.21 0,0.2 0.11,1.54 0.14,2.05 0.02,0.21 1.28,0.68 2.82,0.68 1.56,0 3.17,-0.98 3.17,-2.74 0,-3.32 -4.97,-2.24 -4.97,-4.79 0,-1.01 0.79,-1.76 1.82,-1.76 1.03,0 2.12,1.02 2.12,1.33 0,0.12 -0.04,0.84 -0.04,0.89 0,0.14 0.04,0.21 0.3,0.21 0.24,0 0.26,-0.05 0.26,-0.24 0,-0.71 0.08,-2.07 0.08,-2.22 0,-0.23 -0.04,-0.24 -0.31,-0.24 -0.22,0 -0.24,0.03 -0.25,0.24 0,0.08 -0.01,0.25 -0.06,0.25 -0.05,0 -0.14,-0.04 -0.21,-0.1 -0.79,-0.54 -1.41,-0.6 -1.91,-0.6 -1.53,0 -3.04,1.09 -3.04,2.69 z m 13.77,-0.76 c 0,0.16 0.19,0.16 0.31,0.16 0.16,0 0.2,-0.02 0.21,-0.2 l 0.11,-1.08 c 0.02,-0.08 0.56,-0.14 1.32,-0.14 h 1.99 c 0.05,0 0.08,0.6 0.08,1.22 0,1.46 -0.05,7.21 -0.18,7.21 h -0.87 c -0.22,0 -0.26,0.01 -0.26,0.21 0,0.24 0.01,0.29 0.21,0.29 0.32,0 1.3,-0.04 1.72,-0.04 0.42,0 1.36,0.04 1.68,0.04 0.17,0 0.19,-0.07 0.19,-0.28 0,-0.16 -0.02,-0.22 -0.19,-0.22 h -1 c -0.02,0 -0.02,-0.42 -0.02,-0.87 0,-1.75 0.08,-5.35 0.08,-5.39 0.01,-0.74 0.01,-2.17 0.11,-2.17 h 1.61 c 0.72,0 1.54,0.03 1.54,0.1 0,0.14 -0.04,1.05 -0.04,1.12 0,0.15 0.07,0.2 0.25,0.2 0.2,0 0.27,0 0.27,-0.14 0,-1.1 0.05,-1.63 0.05,-1.89 0,-0.2 -0.08,-0.2 -0.28,-0.2 -0.15,0 -0.21,0.04 -0.22,0.22 0,0.07 -0.64,0.12 -1.48,0.12 h -5 c -0.66,0 -1.47,0 -1.47,-0.07 V 3.07 c 0,-0.13 -0.13,-0.13 -0.23,-0.13 -0.22,0 -0.25,0.06 -0.26,0.25 -0.06,0.7 -0.23,1.78 -0.23,1.82 z m 26.46,0 c 0,0.16 0.19,0.16 0.31,0.16 0.16,0 0.2,-0.02 0.21,-0.2 l 0.11,-1.08 c 0.02,-0.08 0.56,-0.14 1.32,-0.14 h 1.99 c 0.05,0 0.08,0.6 0.08,1.22 0,1.46 -0.05,7.21 -0.18,7.21 h -0.87 c -0.22,0 -0.26,0.01 -0.26,0.21 0,0.24 0.01,0.29 0.21,0.29 0.32,0 1.3,-0.04 1.72,-0.04 0.42,0 1.36,0.04 1.68,0.04 0.17,0 0.19,-0.07 0.19,-0.28 0,-0.16 -0.02,-0.22 -0.19,-0.22 h -1 c -0.02,0 -0.02,-0.42 -0.02,-0.87 0,-1.75 0.08,-5.35 0.08,-5.39 0.01,-0.74 0.01,-2.17 0.11,-2.17 h 1.61 c 0.72,0 1.54,0.03 1.54,0.1 0,0.14 -0.04,1.05 -0.04,1.12 0,0.15 0.07,0.2 0.25,0.2 0.2,0 0.27,0 0.27,-0.14 0,-1.1 0.05,-1.63 0.05,-1.89 0,-0.2 -0.08,-0.2 -0.28,-0.2 -0.15,0 -0.21,0.04 -0.22,0.22 0,0.07 -0.64,0.12 -1.48,0.12 h -5 c -0.66,0 -1.47,0 -1.47,-0.07 V 3.07 c 0,-0.13 -0.13,-0.13 -0.23,-0.13 -0.22,0 -0.25,0.06 -0.26,0.25 -0.06,0.7 -0.23,1.78 -0.23,1.82 z m 16.93,7.38 c 0,0.24 0,0.29 0.2,0.29 0.32,0 1.26,-0.04 1.68,-0.04 0.42,0 1.24,0.04 1.56,0.04 0.17,0 0.17,-0.07 0.17,-0.28 0,-0.16 0,-0.22 -0.17,-0.22 h -0.92 c -0.08,0 -0.13,-2.25 -0.13,-3.98 0,-0.19 0,-0.19 0.13,-0.19 h 5.24 c 0.07,0 0.08,0 0.08,0.17 v 1.73 c 0,1.14 -0.01,2.27 -0.07,2.27 h -0.77 c -0.22,0 -0.27,0.01 -0.27,0.21 0,0.24 0.02,0.29 0.21,0.29 0.33,0 1.17,-0.04 1.59,-0.04 0.42,0 1,0.04 1.33,0.04 0.16,0 0.18,-0.07 0.18,-0.28 0,-0.16 -0.02,-0.22 -0.18,-0.22 h -0.75 c -0.04,0 -0.05,-2.91 -0.05,-5.14 0,-1.64 0,-3.34 0.04,-3.34 h 0.62 c 0.22,0 0.26,-0.02 0.26,-0.21 0,-0.24 -0.01,-0.3 -0.21,-0.3 -0.14,0 -0.77,0.04 -1.36,0.04 -0.67,0 -1.27,-0.04 -1.49,-0.04 -0.2,0 -0.23,0.03 -0.23,0.25 0,0.23 0.07,0.26 0.24,0.26 h 0.8 c 0.05,0 0.11,1.09 0.11,2.01 v 1.71 c 0,0.17 0,0.17 -0.17,0.17 h -5.11 c -0.17,0 -0.17,0 -0.17,-0.21 0,-0.42 -0.01,-1.15 -0.01,-1.85 0,-0.87 0.01,-1.83 0.07,-1.83 h 0.77 c 0.22,0 0.27,-0.02 0.27,-0.21 0,-0.24 -0.02,-0.3 -0.21,-0.3 -0.33,0 -0.91,0.04 -1.52,0.04 -0.58,0 -1.07,-0.04 -1.3,-0.04 -0.18,0 -0.28,0.02 -0.28,0.25 0,0.24 0.11,0.26 0.28,0.26 h 0.62 c 0.05,0 0.07,1.89 0.07,3.48 v 1.43 c 0,1.47 -0.02,3.57 -0.09,3.57 h -0.81 c -0.22,0 -0.25,0.01 -0.25,0.21 z m 17.93,0 c 0,0.24 0.05,0.29 0.24,0.29 0.32,0 1.08,-0.04 1.79,-0.04 0.66,0 1.46,0.04 1.68,0.04 0.17,0 0.2,-0.07 0.2,-0.28 0,-0.16 -0.03,-0.22 -0.2,-0.22 h -0.96 c -0.1,0 -0.13,-2.63 -0.13,-4.42 V 5.87 c 0,-0.73 0.03,-2.17 0.13,-2.17 h 0.91 c 0.22,0 0.25,-0.02 0.25,-0.21 0,-0.24 -0.03,-0.3 -0.2,-0.3 -0.32,0 -0.99,0.04 -1.65,0.04 -0.81,0 -1.52,-0.04 -1.75,-0.04 -0.18,0 -0.25,0.02 -0.25,0.25 0,0.24 0.08,0.26 0.25,0.26 h 0.93 c 0.04,0 0.11,1.09 0.11,2.01 v 1.37 c 0,1.84 -0.02,5.1 -0.13,5.1 h -0.92 c -0.23,0 -0.3,0.01 -0.3,0.21 z m 11.81,0 c 0,0.24 0.01,0.29 0.21,0.29 0.18,0 0.56,-0.04 1.17,-0.04 0.63,0 1.19,0.04 1.51,0.04 0.17,0 0.17,-0.07 0.17,-0.28 0,-0.16 0,-0.22 -0.17,-0.22 h -1.2 c -0.04,0 -0.06,-0.64 -0.06,-1.39 0,-1.33 0.02,-3.31 0.02,-4.8 0,-0.74 0,-1.15 0.01,-1.71 0,-0.26 0.07,-0.14 0.2,0 l 6.89,8.38 c 0.08,0.09 0.16,0.23 0.28,0.23 0.11,0 0.18,-0.12 0.18,-0.35 0,-0.15 0.17,-5.89 0.18,-8.06 0,-0.42 0.03,-0.78 0.06,-0.78 h 0.63 c 0.22,0 0.28,-0.02 0.28,-0.21 0,-0.24 0,-0.3 -0.2,-0.3 -0.2,0 -0.63,0.04 -1.19,0.04 -0.62,0 -1.41,-0.04 -1.51,-0.04 -0.17,0 -0.17,0.07 -0.17,0.28 0,0.17 0,0.23 0.17,0.23 h 1.3 c 0.01,0 0.01,0.63 0.01,0.74 0,1.41 0.03,3.89 0.03,5.26 v 0.59 c 0,0.28 -0.01,0.36 -0.24,0.08 l -5.68,-6.98 c -0.11,-0.14 -0.14,-0.2 -0.31,-0.2 -0.08,0 -0.46,0.04 -0.77,0.04 -0.29,0 -1.37,-0.04 -1.57,-0.04 -0.16,0 -0.19,0.07 -0.19,0.28 0,0.17 0.03,0.23 0.19,0.23 h 0.91 c 0,0.47 -0.04,4.83 -0.11,7.09 -0.03,0.9 -0.01,1.39 -0.12,1.39 h -0.65 c -0.22,0 -0.26,0.01 -0.26,0.21 z m 18.46,-4.48 c 0,3.49 2.37,4.98 4.96,4.98 1.89,0 3.89,-1 3.89,-1.31 0,-0.46 0.01,-0.9 0.01,-1.25 0,-0.52 0.02,-0.77 0.14,-0.77 h 0.44 c 0.14,0 0.15,-0.17 0.15,-0.26 0,-0.12 -0.01,-0.24 -0.15,-0.24 -0.23,0 -0.59,0.04 -1.26,0.04 -0.45,0 -1.19,-0.03 -1.88,-0.04 -0.14,0 -0.14,0.18 -0.14,0.29 0,0.1 0.03,0.21 0.16,0.21 h 1.21 c 0.05,0 0.1,0.31 0.1,0.77 0,0.49 -0.01,1.08 -0.04,1.32 -0.01,0.11 -0.66,0.74 -2.24,0.74 -2.24,0 -3.84,-2.1 -3.84,-4.45 0,-2.52 1.56,-4.4 3.56,-4.4 1.89,0 3.07,1.33 3.07,1.49 0,0.12 -0.06,1.09 -0.06,1.14 0,0.14 0.04,0.19 0.31,0.19 0.19,0 0.26,-0.03 0.26,-0.21 0,-0.72 0.05,-2.4 0.05,-2.59 0,-0.2 -0.1,-0.23 -0.31,-0.23 -0.23,0 -0.25,0.06 -0.25,0.23 v 0.35 c 0,0.08 -0.05,0.11 -0.17,0.01 -0.28,-0.2 -1.28,-0.84 -2.84,-0.84 -2.85,0 -5.13,1.71 -5.13,4.83 z"
       id="path6"
       style="fill:#f9f9f9" />
  </g>
</svg>
